<?xml version="1.0" encoding="utf-8"?>
<!-- Generator: Adobe Illustrator 18.0.0, SVG Export Plug-In . SVG Version: 6.00 Build 0)  -->
<!DOCTYPE svg PUBLIC "-//W3C//DTD SVG 1.1//EN" "http://www.w3.org/Graphics/SVG/1.1/DTD/svg11.dtd">
<svg version="1.1" id="Layer_1" xmlns="http://www.w3.org/2000/svg" xmlns:xlink="http://www.w3.org/1999/xlink" x="0px" y="0px"
	 viewBox="0 274 500 168" enable-background="new 0 274 500 168" xml:space="preserve">
<g id="Layer_4" display="none">
	<rect y="266.3" display="inline" fill="#2A94D2" width="503.2" height="221.6"/>
</g>
<g id="Layer_2">
	<g enable-background="new    ">
		<path fill="#FFFFFF" d="M49.8,366.5L49.3,384H1.9v-3.6c3.2,0,5.4-0.5,6.3-1.4c0.9-0.9,1.4-2.6,1.4-4.8v-33.4
			c0-1.5-0.2-2.7-0.4-3.6c-0.3-0.8-1-1.5-2.1-2s-2.8-0.8-5.2-0.8v-3.6h44.2l0.7,13.8h-3.6c-0.8-3.1-1.8-5.2-2.8-6.6
			c-1.1-1.3-2.2-2.2-3.6-2.4c-1.3-0.3-3.3-0.4-5.9-0.4H20.8v18.8h5.4c1.8,0,3.2-0.2,4.2-0.5c0.9-0.3,1.6-0.9,1.9-1.8
			c0.3-0.9,0.6-2.3,0.8-4.3h3.8v17.7h-3.6c-0.1-2-0.3-3.4-0.8-4.3c-0.4-0.9-1.1-1.6-2-1.8c-0.9-0.3-2.2-0.5-4.2-0.5h-5.5v12.5
			c0,2.1,0.1,3.6,0.2,4.6c0.1,1,0.4,1.8,0.8,2.4c0.4,0.7,1.2,1.1,2.2,1.4c1,0.2,2.5,0.4,4.4,0.4h4.2c1.8,0,3.5-0.2,5.2-0.7
			c1.7-0.4,3.3-1.7,4.8-3.5c1.6-1.9,2.7-4.8,3.3-8.9h3.7V366.5z"/>
		<path fill="#FFFFFF" d="M102.3,366.2L102,384H54.6v-3.6c3.2,0,5.4-0.5,6.3-1.4s1.4-2.6,1.4-4.8v-33.4c0-1.6-0.2-2.8-0.5-3.6
			c-0.3-0.8-1-1.5-2.2-2s-2.8-0.7-5.1-0.7v-3.6h26.7v3.6c-2.2,0-3.9,0.2-5.1,0.7c-1.2,0.4-1.9,1.1-2.2,1.9c-0.3,0.8-0.5,2.1-0.5,3.7
			v30.6c0,2.4,0.1,4.2,0.3,5.2c0.2,1.1,0.9,1.8,1.9,2.3c1.1,0.5,2.8,0.8,5.2,0.8c3,0,5.7-0.2,7.9-0.7c2.2-0.4,4.3-1.7,6.2-3.7
			c1.9-2,3.1-5,3.6-9.1H102.3z"/>
		<path fill="#FFFFFF" d="M179.1,383.4h-3.7c-0.6-2.2-1.4-4.2-2.7-6.1c-2,2.1-4.2,3.8-6.8,5.3c-2.6,1.5-6,2.2-10.4,2.2
			c-4.8,0-9.2-1.2-13.3-3.5s-7.3-5.6-9.8-9.8c-2.4-4.2-3.7-8.8-3.7-14.1c0-3.8,0.7-7.2,2-10.7c1.3-3.3,3.2-6.3,5.7-8.9
			c2.4-2.6,5.3-4.6,8.8-6.1s7.1-2.2,11.1-2.2c6.7,0,12.2,2.2,16.5,6.5c0.6-1.1,1.2-2.8,1.7-4.9h3.5l0.7,19.6h-3.8
			c-0.7-3.3-1.9-6.2-3.7-8.8c-1.8-2.6-3.9-4.6-6.3-5.9c-2.4-1.3-5-2.1-7.7-2.1c-3,0-5.7,0.8-8.1,2.4c-2.4,1.7-4.2,4.2-5.6,7.5
			s-2,7.5-2,12.5c0,4.8,0.6,8.9,1.7,12.2c1.1,3.2,2.5,5.7,4.2,7.3c1.7,1.7,3.3,2.8,5,3.3s3.2,0.9,4.8,0.9c3.2,0,6.1-0.8,8.7-2.6
			c2.6-1.8,4.7-3.9,6.3-6.5c1.7-2.6,2.8-5.2,3.3-7.8h3.8L179.1,383.4L179.1,383.4z"/>
		<path fill="#FFFFFF" d="M248.2,384h-26.2v-3.6c2.2,0,3.8-0.2,4.8-0.7c1.1-0.5,1.8-1.2,2.1-2c0.3-0.9,0.5-2.1,0.5-3.5v-16h-24.7v16
			c0,2.2,0.4,3.8,1.3,4.8c0.9,1,3,1.5,6.2,1.5v3.6h-26.3v-3.6c2.1,0,3.8-0.2,4.8-0.7c1.1-0.5,1.8-1.2,2.2-2c0.3-0.9,0.5-2.1,0.5-3.6
			v-33.4c0-1.5-0.2-2.7-0.5-3.5c-0.3-0.8-1-1.5-2.1-2c-1.1-0.5-2.8-0.8-4.9-0.8V331h26.3v3.6c-3.2,0-5.3,0.5-6.2,1.4
			c-0.9,1-1.4,2.6-1.4,4.8v13.1h24.7v-13.1c0-1.5-0.2-2.7-0.4-3.5c-0.2-0.8-1-1.5-2-2c-1.1-0.5-2.7-0.8-5-0.8V331h26.2v3.6
			c-2.2,0-3.8,0.2-4.9,0.8s-1.8,1.2-2.1,2s-0.4,2-0.4,3.5v33.4c0,1.4,0.2,2.6,0.4,3.4c0.2,0.8,1,1.5,2.1,2.1c1.1,0.6,2.7,0.8,5,0.8
			L248.2,384L248.2,384z"/>
		<path fill="#FFFFFF" d="M304.9,384h-25.1v-3.6c2.1,0,3.7-0.2,4.7-0.4c1-0.3,1.4-1,1.4-2.2c0-0.7-0.2-1.6-0.5-2.4l-2.5-6.2h-17.2
			l-1.3,3.4c-0.8,1.9-1.1,3.3-1.1,4.2c0,1.6,0.6,2.6,1.8,3s2.7,0.7,4.2,0.7v3.6H251v-3.6c1.5,0,2.7-0.2,3.8-0.8c1-0.6,2-1.6,2.9-3.1
			c0.9-1.5,1.9-3.7,3-6.5l15.3-40.2h3.8l16.2,41.4c1.2,2.9,2,4.9,2.6,5.9c0.6,1,1.3,1.8,2.2,2.4c1,0.6,2.3,0.8,4.1,0.8L304.9,384
			L304.9,384z M281.5,365.2l-7.3-18.6l-7,18.6H281.5z"/>
		<path fill="#FFFFFF" d="M365.1,384h-14.3c-0.5-0.6-1.2-1.4-1.9-2.5c-0.7-1.1-1.6-2.4-2.5-3.8c-0.9-1.5-1.7-2.7-2.2-3.7l-3.6-6
			c-1.6-2.7-2.8-4.5-3.7-5.5c-0.8-1-1.8-1.6-2.8-1.9s-2.8-0.4-5.4-0.4h-2v13.9c0,1.5,0.2,2.7,0.5,3.5c0.3,0.9,1.1,1.6,2.2,2
			c1.2,0.5,2.8,0.7,5.1,0.7v3.6h-26.7v-3.6c3.2,0,5.3-0.5,6.2-1.4c0.9-0.9,1.4-2.6,1.4-4.8v-33.5c0-2.2-0.4-3.9-1.3-4.8
			c-0.9-0.9-3-1.4-6.3-1.4v-3.7l12.3-0.4c0.9-0.1,2-0.1,3.2-0.1s2.3,0,3.4,0c0.8,0,2.2,0,4,0.1c2.7,0.1,5.1,0.2,7.4,0.5
			c2.3,0.2,4.1,0.5,5.4,0.9c2,0.5,3.8,1.3,5.6,2.5c1.8,1.2,3.2,2.7,4.3,4.6c1.1,1.9,1.7,4.1,1.7,6.6c0,1.8-0.4,3.5-1.2,5.2
			c-0.8,1.7-2,3.2-3.8,4.5c-1.8,1.3-4,2.3-6.8,3.1c1.9,1.1,3.5,2.5,4.8,4.2c1.3,1.7,3.4,4.7,6.2,9.2c1.7,2.5,3,4.4,4.1,5.8
			c1.1,1.3,2.1,2.2,3,2.7c0.9,0.4,2.1,0.8,3.4,0.9L365.1,384L365.1,384z M343.1,345c0-4.2-1.2-7.1-3.8-8.4
			c-2.6-1.4-5.9-2.1-10.1-2.1c-0.6,0-1,0-1.3,0c-0.3,0-0.7,0-1.1,0v21.4h2.5c3.9,0,7.2-0.7,9.9-1.9
			C341.7,352.7,343.1,349.7,343.1,345z"/>
		<path fill="#FFFFFF" d="M424.6,384h-14.2c-0.5-0.6-1.2-1.4-1.9-2.5c-0.8-1.1-1.6-2.4-2.5-3.8c-0.9-1.5-1.7-2.7-2.2-3.7l-3.7-6
			c-1.6-2.7-2.8-4.5-3.7-5.5c-0.8-1-1.8-1.6-2.8-1.9s-2.8-0.4-5.4-0.4h-2v13.9c0,1.5,0.2,2.7,0.5,3.5c0.3,0.9,1.1,1.6,2.2,2
			c1.2,0.5,2.8,0.7,5.1,0.7v3.6h-26.7v-3.6c3.2,0,5.3-0.5,6.2-1.4c0.9-0.9,1.4-2.6,1.4-4.8v-33.5c0-2.2-0.4-3.9-1.3-4.8
			c-0.9-0.9-3-1.4-6.3-1.4v-3.7l12.3-0.4c0.9-0.1,2-0.1,3.2-0.1s2.3,0,3.4,0c0.8,0,2.2,0,4,0.1c2.7,0.1,5.1,0.2,7.4,0.5
			c2.3,0.2,4.1,0.5,5.4,0.9c2,0.5,3.8,1.3,5.6,2.5c1.8,1.2,3.2,2.7,4.3,4.6c1.1,1.9,1.7,4.1,1.7,6.6c0,1.8-0.4,3.5-1.2,5.2
			c-0.8,1.7-2,3.2-3.8,4.5c-1.8,1.3-4,2.3-6.8,3.1c1.9,1.1,3.5,2.5,4.8,4.2c1.3,1.7,3.4,4.7,6.2,9.2c1.7,2.5,3,4.4,4.1,5.8
			c1.1,1.3,2.1,2.2,3,2.7c0.9,0.4,2.1,0.8,3.4,0.9L424.6,384L424.6,384z M402.5,345c0-4.2-1.2-7.1-3.8-8.4
			c-2.6-1.4-5.9-2.1-10.1-2.1c-0.6,0-1,0-1.3,0c-0.3,0-0.7,0-1.1,0v21.4h2.5c3.9,0,7.2-0.7,9.9-1.9
			C401.2,352.7,402.5,349.7,402.5,345z"/>
		<path fill="#FFFFFF" d="M484.1,357.4c0,4.8-1.2,9.3-3.4,13.6c-2.3,4.3-5.8,7.6-10.2,10.2c-4.5,2.6-9.8,3.8-16,3.8
			c-5,0-9.4-0.8-13.2-2.4c-3.8-1.6-6.9-3.8-9.3-6.5c-2.4-2.8-4.2-5.7-5.4-8.9c-1.2-3.2-1.8-6.5-1.8-9.8c0-4.7,1.1-9.2,3.3-13.4
			c2.2-4.2,5.6-7.6,10.1-10.2c4.5-2.6,9.8-3.8,16.1-3.8c5.7,0,10.5,0.9,14.5,2.8c4,1.8,7.1,4.2,9.3,7c2.2,2.8,3.8,5.8,4.8,8.9
			C483.6,351.7,484.1,354.6,484.1,357.4z M471.3,357.2c0-3-0.2-5.8-0.8-8.5c-0.5-2.7-1.4-5.1-2.7-7.2c-1.2-2.2-3-3.8-5.2-5.2
			c-2.3-1.2-5-1.9-8.3-1.9c-4.5,0-8,1.1-10.5,3.3c-2.5,2.2-4.2,5-5.2,8.4c-0.9,3.3-1.3,7-1.3,11c0,2.2,0.2,4.5,0.4,6.8
			c0.2,2.4,1,4.8,2.1,7.3s2.8,4.6,5.2,6.3c2.4,1.8,5.5,2.6,9.3,2.6c3.8,0,6.8-0.9,9.2-2.7c2.3-1.8,4.1-3.9,5.2-6.5
			c1.1-2.6,1.7-5,2-7.3C471.2,361.6,471.3,359.3,471.3,357.2z"/>
	</g>
</g>
</svg>
