<svg viewBox="0 0 100 100" xmlns="http://www.w3.org/2000/svg"><symbol viewBox="0 0 453 453" id="icon-calculator"><title>calculator</title> <path d="M360,0.8H90c-13.8,0-25,11.2-25,25V428c0,13.8,11.2,25,25,25h270c13.8,0,25-11.2,25-25V25.8C385,12,373.8,0.8,360,0.8z
	 M160,390.8c0,16.6-13.4,30-30,30h0c-16.6,0-30-13.4-30-30v0c0-16.6,13.4-30,30-30h0C146.6,360.8,160,374.2,160,390.8L160,390.8z
	 M160,295.8c0,16.6-13.4,30-30,30h0c-16.6,0-30-13.4-30-30v0c0-16.6,13.4-30,30-30h0C146.6,265.8,160,279.2,160,295.8L160,295.8z
	 M160,200.8c0,16.6-13.4,30-30,30h0c-16.6,0-30-13.4-30-30v0c0-16.6,13.4-30,30-30h0C146.6,170.8,160,184.2,160,200.8L160,200.8z
	 M255,390.8c0,16.6-13.4,30-30,30h0c-16.6,0-30-13.4-30-30v0c0-16.6,13.4-30,30-30h0C241.5,360.8,255,374.2,255,390.8L255,390.8z
	 M255,295.8c0,16.6-13.4,30-30,30h0c-16.6,0-30-13.4-30-30v0c0-16.6,13.4-30,30-30h0C241.5,265.8,255,279.2,255,295.8L255,295.8z
	 M255,200.8c0,16.6-13.4,30-30,30h0c-16.6,0-30-13.4-30-30v0c0-16.6,13.4-30,30-30h0C241.5,170.8,255,184.2,255,200.8L255,200.8z
	 M349.9,390.8c0,16.6-13.4,30-30,30h0c-16.6,0-30-13.4-30-30v-95c0-16.6,13.4-30,30-30h0c16.6,0,30,13.4,30,30V390.8z M349.9,200.8
	c0,16.6-13.4,30-30,30h0c-16.6,0-30-13.4-30-30v0c0-16.6,13.4-30,30-30h0C336.5,170.8,349.9,184.2,349.9,200.8L349.9,200.8z
	 M350,106.1c0,16.6-13.4,30-30,30H130c-16.6,0-30-13.4-30-30V66.9c0-16.6,13.4-30,30-30h190c16.6,0,30,13.4,30,30V106.1z"/> </symbol><symbol viewBox="0 0 400 400" id="icon-clock"><title>clock</title> <path d="M198.8,1.1C89.6,1.1,1.1,89.6,1.1,198.8s88.5,197.6,197.6,197.6s197.6-88.5,197.6-197.6S307.9,1.1,198.8,1.1z M352.8,200
	c0,85-68.9,154-154,154s-154-68.9-154-154s68.9-154,154-154S352.8,115,352.8,200z"/> <g> <path d="M196.5,234.6h-2.8c-9.4,0-17.1-7.7-17.1-17.1V100c0-9.4,7.7-17.1,17.1-17.1h2.8c9.4,0,17.1,7.7,17.1,17.1v117.4
		C213.5,226.9,205.9,234.6,196.5,234.6z"/> <path d="M176.5,217.5v-2.8c0-9.4,7.7-17.1,17.1-17.1H259c9.4,0,17.1,7.7,17.1,17.1v2.8c0,9.4-7.7,17.1-17.1,17.1h-65.3
		C184.2,234.6,176.5,226.9,176.5,217.5z"/> </g> </symbol><symbol viewBox="0 133 600 254" id="icon-logo"><title>logo</title> <g id="logo-Layer_4" display="none"> <rect y="120" display="inline" fill="#2A94D2" width="603.9" height="265.9"/> </g> <g id="logo-Layer_2"> <g enable-background="new    "> <path fill="#FFFFFF" d="M59.7,240.2l-0.5,21H2.3v-4.3c3.9,0,6.5-0.6,7.6-1.7c1.1-1.1,1.7-3.1,1.7-5.8v-40.1c0-1.8-0.2-3.2-0.5-4.3
			c-0.4-1-1.2-1.8-2.5-2.4c-1.3-0.6-3.4-0.9-6.2-0.9v-4.3h53l0.8,16.6h-4.3c-1-3.7-2.1-6.3-3.4-7.9c-1.3-1.6-2.7-2.6-4.3-2.9
			c-1.6-0.4-4-0.5-7.1-0.5H25v22.6h6.5c2.2,0,3.9-0.2,5-0.6c1.1-0.4,1.9-1.1,2.3-2.2c0.4-1.1,0.7-2.8,0.9-5.2h4.5v21.2h-4.3
			c-0.1-2.4-0.4-4.1-0.9-5.2c-0.5-1.1-1.3-1.9-2.4-2.2c-1.1-0.4-2.7-0.6-5-0.6H25v15c0,2.5,0.1,4.3,0.2,5.5c0.1,1.2,0.5,2.1,1,2.9
			c0.5,0.8,1.4,1.3,2.7,1.7c1.2,0.3,3,0.5,5.3,0.5h5.1c2.2,0,4.2-0.3,6.2-0.8c2-0.5,3.9-2,5.8-4.2c1.9-2.3,3.2-5.8,4-10.7H59.7z"/> <path fill="#FFFFFF" d="M122.8,239.9l-0.4,21.3H65.5v-4.3c3.9,0,6.5-0.6,7.6-1.7c1.1-1.1,1.7-3.1,1.7-5.8v-40.1
			c0-1.9-0.2-3.3-0.6-4.3c-0.4-1-1.2-1.8-2.6-2.4c-1.4-0.6-3.4-0.8-6.1-0.8v-4.3h32.1v4.3c-2.7,0-4.7,0.3-6.1,0.8
			c-1.4,0.5-2.3,1.3-2.7,2.3c-0.4,1-0.6,2.5-0.6,4.4v36.7c0,2.9,0.1,5,0.4,6.2c0.3,1.3,1.1,2.2,2.3,2.8c1.3,0.6,3.3,1,6.2,1
			c3.6,0,6.8-0.3,9.5-0.8c2.7-0.5,5.2-2,7.5-4.4s3.7-6,4.3-10.9H122.8z"/> <path fill="#FFFFFF" d="M214.9,260.5h-4.4c-0.7-2.7-1.7-5.1-3.2-7.3c-2.4,2.5-5.1,4.6-8.2,6.4c-3.1,1.8-7.2,2.7-12.5,2.7
			c-5.7,0-11.1-1.4-16-4.2c-4.9-2.8-8.8-6.7-11.7-11.7c-2.9-5-4.4-10.6-4.4-16.9c0-4.5,0.8-8.7,2.4-12.8c1.6-4,3.8-7.6,6.8-10.7
			c2.9-3.1,6.4-5.5,10.5-7.3c4.1-1.8,8.5-2.6,13.3-2.6c8,0,14.6,2.6,19.8,7.8c0.7-1.3,1.4-3.3,2-5.9h4.2l0.8,23.5h-4.5
			c-0.8-4-2.3-7.5-4.4-10.6c-2.1-3.1-4.7-5.5-7.6-7.1s-6-2.5-9.2-2.5c-3.6,0-6.8,1-9.7,2.9c-2.9,2-5.1,5-6.7,9c-1.6,4-2.4,9-2.4,15
			c0,5.8,0.7,10.7,2,14.6c1.3,3.9,3,6.8,5,8.8c2,2,4,3.3,6,4c2,0.7,3.9,1.1,5.7,1.1c3.9,0,7.3-1,10.4-3.1c3.1-2.1,5.6-4.7,7.6-7.8
			s3.3-6.3,4-9.4h4.5V260.5z"/> <path fill="#FFFFFF" d="M297.9,261.2h-31.4v-4.3c2.6,0,4.5-0.3,5.8-0.8c1.3-0.6,2.2-1.4,2.5-2.4c0.4-1.1,0.6-2.5,0.6-4.2v-19.2
			h-29.6v19.2c0,2.6,0.5,4.6,1.6,5.7c1.1,1.2,3.6,1.8,7.5,1.8v4.3h-31.6v-4.3c2.5,0,4.5-0.3,5.8-0.8c1.3-0.6,2.2-1.4,2.6-2.4
			c0.4-1.1,0.6-2.5,0.6-4.3v-40.1c0-1.8-0.2-3.2-0.6-4.2c-0.4-1-1.2-1.8-2.5-2.4c-1.3-0.6-3.3-0.9-5.9-0.9v-4.3h31.6v4.3
			c-3.9,0-6.4,0.6-7.5,1.7c-1.1,1.2-1.7,3.1-1.7,5.8v15.7h29.6v-15.7c0-1.8-0.2-3.2-0.5-4.2c-0.3-1-1.2-1.8-2.4-2.4
			c-1.3-0.6-3.3-0.9-6-0.9v-4.3h31.4v4.3c-2.7,0-4.6,0.3-5.9,0.9c-1.3,0.6-2.1,1.4-2.5,2.4c-0.4,1-0.5,2.4-0.5,4.2v40.1
			c0,1.7,0.2,3.1,0.5,4.1c0.3,1,1.2,1.8,2.5,2.5s3.3,0.9,6,0.9V261.2z"/> <path fill="#FFFFFF" d="M365.9,261.2h-30.1v-4.3c2.5,0,4.4-0.2,5.6-0.5c1.2-0.4,1.7-1.2,1.7-2.6c0-0.9-0.2-1.9-0.6-2.9l-3-7.5
			h-20.7l-1.6,4.1c-0.9,2.3-1.3,4-1.3,5c0,1.9,0.7,3.1,2.2,3.6c1.5,0.5,3.2,0.8,5.1,0.8v4.3h-22v-4.3c1.8,0,3.2-0.3,4.5-1
			c1.2-0.7,2.4-1.9,3.5-3.7c1.1-1.8,2.3-4.4,3.6-7.8l18.4-48.2h4.5l19.4,49.7c1.4,3.5,2.4,5.9,3.1,7.1s1.6,2.2,2.7,2.9
			c1.2,0.7,2.8,1,4.9,1V261.2z M337.8,238.7l-8.8-22.3l-8.4,22.3H337.8z"/> <path fill="#FFFFFF" d="M438.1,261.2H421c-0.6-0.7-1.4-1.7-2.3-3s-1.9-2.9-3-4.6c-1.1-1.8-2-3.2-2.7-4.4l-4.3-7.2
			c-1.9-3.2-3.4-5.4-4.4-6.6c-1-1.2-2.1-1.9-3.4-2.3s-3.4-0.5-6.5-0.5h-2.4v16.7c0,1.8,0.2,3.2,0.6,4.2c0.4,1.1,1.3,1.9,2.7,2.4
			c1.4,0.6,3.4,0.8,6.1,0.8v4.3h-32v-4.3c3.9,0,6.4-0.6,7.5-1.7c1.1-1.1,1.7-3.1,1.7-5.8V209c0-2.7-0.5-4.7-1.6-5.8
			c-1.1-1.1-3.6-1.7-7.6-1.7v-4.4l14.8-0.5c1.1-0.1,2.4-0.1,3.9-0.1c1.5,0,2.8,0,4.1,0c1,0,2.6,0,4.8,0.1c3.2,0.1,6.1,0.3,8.9,0.6
			c2.8,0.3,4.9,0.6,6.5,1.1c2.4,0.6,4.6,1.6,6.7,3c2.1,1.4,3.8,3.2,5.2,5.5c1.3,2.3,2,4.9,2,7.9c0,2.1-0.5,4.2-1.4,6.2
			c-0.9,2-2.4,3.8-4.5,5.4c-2.1,1.6-4.8,2.8-8.1,3.7c2.3,1.3,4.2,3,5.8,5c1.6,2,4.1,5.7,7.5,11c2,3,3.6,5.3,4.9,6.9s2.5,2.6,3.6,3.2
			c1.1,0.5,2.5,0.9,4.1,1.1V261.2z M411.7,214.4c0-5.1-1.5-8.5-4.6-10.1c-3.1-1.7-7.1-2.5-12.1-2.5c-0.7,0-1.2,0-1.6,0
			c-0.4,0-0.8,0-1.3,0v25.7h3c4.7,0,8.7-0.8,11.9-2.3C410,223.6,411.7,220,411.7,214.4z"/> <path fill="#FFFFFF" d="M509.5,261.2h-17.1c-0.6-0.7-1.4-1.7-2.3-3s-1.9-2.9-3-4.6c-1.1-1.8-2-3.2-2.7-4.4L480,242
			c-1.9-3.2-3.4-5.4-4.4-6.6c-1-1.2-2.1-1.9-3.4-2.3s-3.4-0.5-6.5-0.5h-2.4v16.7c0,1.8,0.2,3.2,0.6,4.2c0.4,1.1,1.3,1.9,2.7,2.4
			c1.4,0.6,3.4,0.8,6.1,0.8v4.3h-32v-4.3c3.9,0,6.4-0.6,7.5-1.7c1.1-1.1,1.7-3.1,1.7-5.8V209c0-2.7-0.5-4.7-1.6-5.8
			c-1.1-1.1-3.6-1.7-7.6-1.7v-4.4l14.8-0.5c1.1-0.1,2.4-0.1,3.9-0.1c1.5,0,2.8,0,4.1,0c1,0,2.6,0,4.8,0.1c3.2,0.1,6.1,0.3,8.9,0.6
			c2.8,0.3,4.9,0.6,6.5,1.1c2.4,0.6,4.6,1.6,6.7,3c2.1,1.4,3.8,3.2,5.2,5.5c1.3,2.3,2,4.9,2,7.9c0,2.1-0.5,4.2-1.4,6.2
			c-0.9,2-2.4,3.8-4.5,5.4c-2.1,1.6-4.8,2.8-8.1,3.7c2.3,1.3,4.2,3,5.8,5c1.6,2,4.1,5.7,7.5,11c2,3,3.6,5.3,4.9,6.9s2.5,2.6,3.6,3.2
			c1.1,0.5,2.5,0.9,4.1,1.1V261.2z M483,214.4c0-5.1-1.5-8.5-4.6-10.1c-3.1-1.7-7.1-2.5-12.1-2.5c-0.7,0-1.2,0-1.6,0
			c-0.4,0-0.8,0-1.3,0v25.7h3c4.7,0,8.7-0.8,11.9-2.3C481.4,223.6,483,220,483,214.4z"/> <path fill="#FFFFFF" d="M580.9,229.3c0,5.8-1.4,11.2-4.1,16.3c-2.8,5.1-6.9,9.1-12.3,12.2c-5.4,3.1-11.8,4.6-19.2,4.6
			c-6,0-11.3-1-15.9-2.9c-4.6-1.9-8.3-4.6-11.2-7.8c-2.9-3.3-5.1-6.8-6.5-10.7c-1.4-3.9-2.1-7.8-2.1-11.7c0-5.7,1.3-11,4-16.1
			c2.7-5.1,6.7-9.1,12.1-12.2c5.4-3.1,11.8-4.6,19.3-4.6c6.8,0,12.6,1.1,17.4,3.3c4.8,2.2,8.5,5,11.2,8.4s4.6,6.9,5.7,10.7
			C580.3,222.4,580.9,225.9,580.9,229.3z M565.6,229.1c0-3.6-0.3-7-0.9-10.2c-0.6-3.2-1.7-6.1-3.2-8.7c-1.5-2.6-3.6-4.6-6.3-6.2
			c-2.7-1.5-6-2.3-9.9-2.3c-5.4,0-9.6,1.3-12.6,4c-3,2.7-5.1,6-6.2,10.1c-1.1,4-1.6,8.4-1.6,13.2c0,2.6,0.2,5.4,0.5,8.2
			c0.3,2.9,1.2,5.8,2.5,8.8s3.4,5.5,6.3,7.6s6.6,3.1,11.2,3.1c4.6,0,8.2-1.1,11.1-3.2c2.8-2.1,4.9-4.7,6.2-7.8s2.1-6,2.4-8.8
			C565.5,234.3,565.6,231.6,565.6,229.1z"/> </g> </g> <g id="logo-Layer_3"> <g enable-background="new    "> <path fill="#FFFFFF" d="M4.2,316.7v-32.8h3.2v32.8H4.2z"/> <path fill="#FFFFFF" d="M35.2,316.7H32v-13.5c0-2.9-0.4-5-1.2-6.2c-0.8-1.3-2.1-1.9-3.9-1.9c-0.9,0-1.9,0.2-2.8,0.5
			c-0.9,0.3-1.8,0.8-2.6,1.4c-0.8,0.6-1.5,1.3-2.1,2.2c-0.6,0.8-1.1,1.8-1.4,2.8v14.8h-3.1v-24.1h2.9v5.5c0.5-0.9,1.1-1.7,1.8-2.4
			c0.7-0.7,1.5-1.3,2.4-1.9c0.9-0.5,1.8-0.9,2.8-1.2c1-0.3,2-0.4,3.1-0.4c1.4,0,2.5,0.2,3.4,0.7c0.9,0.5,1.6,1.2,2.2,2.1
			c0.6,0.9,1,2,1.2,3.3c0.2,1.3,0.4,2.7,0.4,4.3V316.7z"/> <path fill="#FFFFFF" d="M40.1,304.6c0-1.7,0.3-3.3,0.9-4.8c0.6-1.5,1.4-2.8,2.5-4c1.1-1.1,2.3-2,3.8-2.7c1.5-0.6,3.1-1,4.9-1
			c2.3,0,4.3,0.5,6,1.5c1.7,1,3,2.4,3.8,4.2l-3.1,1c-0.7-1.2-1.6-2.2-2.8-2.9c-1.2-0.7-2.5-1-4-1c-1.2,0-2.4,0.2-3.4,0.7
			s-2,1.2-2.8,2c-0.8,0.8-1.4,1.9-1.9,3c-0.4,1.2-0.7,2.5-0.7,3.8c0,1.4,0.2,2.6,0.7,3.8c0.5,1.2,1.1,2.2,1.9,3.1
			c0.8,0.9,1.7,1.6,2.8,2.1s2.2,0.8,3.4,0.8c0.8,0,1.5-0.1,2.3-0.3c0.8-0.2,1.5-0.5,2.1-0.9c0.6-0.4,1.2-0.8,1.7-1.3
			c0.5-0.5,0.8-1,1-1.6l3.1,0.9c-0.3,0.9-0.8,1.7-1.5,2.4c-0.6,0.7-1.4,1.4-2.3,1.9c-0.9,0.5-1.9,1-2.9,1.2
			c-1.1,0.3-2.2,0.4-3.3,0.4c-1.8,0-3.4-0.3-4.9-1c-1.5-0.7-2.8-1.6-3.8-2.7c-1.1-1.2-1.9-2.5-2.5-4
			C40.4,307.9,40.1,306.3,40.1,304.6z"/> <path fill="#FFFFFF" d="M77.3,317.2c-1.8,0-3.4-0.3-4.8-1c-1.5-0.7-2.7-1.6-3.8-2.7c-1.1-1.1-1.9-2.5-2.5-4
			c-0.6-1.5-0.9-3.1-0.9-4.8c0-1.7,0.3-3.3,0.9-4.8c0.6-1.5,1.4-2.8,2.5-4s2.3-2.1,3.8-2.7c1.5-0.7,3.1-1,4.8-1c1.7,0,3.3,0.3,4.8,1
			c1.5,0.7,2.7,1.6,3.8,2.7s1.9,2.5,2.5,4c0.6,1.5,0.9,3.1,0.9,4.8c0,1.7-0.3,3.3-0.9,4.8c-0.6,1.5-1.4,2.8-2.5,4
			c-1.1,1.1-2.3,2-3.8,2.7C80.6,316.8,79,317.2,77.3,317.2z M68.5,304.8c0,1.4,0.2,2.6,0.7,3.8c0.4,1.2,1.1,2.2,1.9,3.1
			c0.8,0.9,1.7,1.6,2.8,2.1s2.2,0.7,3.4,0.7s2.3-0.3,3.4-0.8s2-1.2,2.8-2.1c0.8-0.9,1.4-1.9,1.9-3.1c0.5-1.2,0.7-2.4,0.7-3.8
			c0-1.3-0.2-2.6-0.7-3.8s-1.1-2.2-1.9-3.1c-0.8-0.9-1.7-1.6-2.8-2.1s-2.2-0.8-3.4-0.8c-1.2,0-2.3,0.3-3.4,0.8
			c-1.1,0.5-2,1.2-2.8,2.1c-0.8,0.9-1.4,1.9-1.9,3.1C68.7,302.1,68.5,303.4,68.5,304.8z"/> <path fill="#FFFFFF" d="M130.2,316.7h-3.1v-13.5c0-2.8-0.4-4.9-1.3-6.2c-0.9-1.3-2.2-2-4-2c-0.9,0-1.8,0.2-2.6,0.5
			c-0.8,0.3-1.6,0.8-2.3,1.4c-0.7,0.6-1.3,1.3-1.8,2.2c-0.5,0.8-0.9,1.8-1.2,2.8v14.7h-3.1v-13.5c0-2.9-0.4-5-1.3-6.2
			c-0.9-1.3-2.2-1.9-4-1.9c-1.8,0-3.4,0.6-4.9,1.9c-1.4,1.3-2.4,2.9-3.1,5v14.8h-3.1v-24.1h2.9v5.5c1-1.8,2.3-3.3,3.9-4.3
			s3.4-1.5,5.3-1.5c2,0,3.7,0.6,4.9,1.7c1.2,1.1,2,2.6,2.2,4.5c2.3-4.1,5.4-6.2,9.3-6.2c1.3,0,2.5,0.2,3.4,0.7
			c0.9,0.5,1.7,1.2,2.3,2.1c0.6,0.9,1,2,1.2,3.3c0.3,1.3,0.4,2.7,0.4,4.3V316.7z"/> <path fill="#FFFFFF" d="M147.3,317.2c-1.8,0-3.4-0.3-4.9-1c-1.5-0.7-2.8-1.6-3.8-2.7c-1.1-1.2-1.9-2.5-2.5-4
			c-0.6-1.5-0.9-3.1-0.9-4.9c0-1.7,0.3-3.3,0.9-4.8c0.6-1.5,1.4-2.8,2.5-3.9c1.1-1.1,2.4-2,3.8-2.7c1.5-0.7,3.1-1,4.8-1
			s3.4,0.3,4.8,1c1.5,0.7,2.7,1.6,3.8,2.7c1,1.1,1.9,2.5,2.5,3.9c0.6,1.5,0.9,3.1,0.9,4.7c0,0.2,0,0.5,0,0.7c0,0.2,0,0.4-0.1,0.5
			h-20.6c0.1,1.3,0.4,2.5,0.9,3.6c0.5,1.1,1.2,2,1.9,2.8c0.8,0.8,1.7,1.4,2.7,1.9c1,0.4,2.1,0.7,3.3,0.7c0.8,0,1.6-0.1,2.4-0.3
			c0.8-0.2,1.5-0.5,2.1-0.9s1.2-0.8,1.7-1.4c0.5-0.5,0.9-1.1,1.2-1.8l2.7,0.7c-0.4,0.9-0.9,1.7-1.6,2.4c-0.7,0.7-1.5,1.4-2.4,1.9
			c-0.9,0.5-1.9,1-3,1.2C149.5,317,148.4,317.2,147.3,317.2z M156.2,303.4c-0.1-1.3-0.4-2.5-0.9-3.5c-0.5-1.1-1.2-2-1.9-2.8
			c-0.8-0.8-1.7-1.4-2.8-1.8c-1-0.4-2.2-0.6-3.3-0.6c-1.2,0-2.3,0.2-3.3,0.6c-1,0.4-2,1-2.8,1.8c-0.8,0.8-1.4,1.7-1.9,2.8
			c-0.5,1.1-0.8,2.3-0.9,3.5H156.2z"/> <path fill="#FFFFFF" d="M198.6,286.7h-11.7v30h-3.2v-30H172v-2.9h26.6V286.7z"/> <path fill="#FFFFFF" d="M204.7,317.2c-1.2,0-2.4-0.2-3.4-0.6c-1-0.4-1.9-0.9-2.6-1.6c-0.7-0.7-1.3-1.5-1.7-2.4
			c-0.4-0.9-0.6-1.8-0.6-2.8c0-1.1,0.2-2.1,0.7-3c0.5-0.9,1.2-1.7,2.1-2.3c0.9-0.6,2-1.1,3.2-1.5s2.6-0.5,4.1-0.5
			c1.2,0,2.4,0.1,3.7,0.3c1.3,0.2,2.4,0.5,3.4,0.9v-2.2c0-2.1-0.6-3.8-1.8-5.1s-2.9-1.9-4.9-1.9c-1.3,0-2.6,0.2-3.9,0.7
			c-1.3,0.5-2.6,1.2-3.9,2.1l-1.1-2.1c1.6-1,3.1-1.8,4.6-2.4c1.5-0.5,3-0.8,4.6-0.8c2.9,0,5.3,0.8,7,2.5c1.7,1.7,2.6,4,2.6,7v10.9
			c0,0.9,0.4,1.3,1.1,1.3v2.8c-0.2,0-0.5,0.1-0.7,0.1c-0.2,0-0.4,0-0.6,0c-0.6,0-1.2-0.2-1.7-0.6c-0.5-0.4-0.8-0.9-0.9-1.7l-0.1-1.9
			c-1,1.4-2.4,2.5-4.1,3.3C208.2,316.8,206.4,317.2,204.7,317.2z M205.5,314.8c1.4,0,2.8-0.3,4.1-0.9c1.4-0.6,2.5-1.4,3.3-2.5
			c0.2-0.3,0.4-0.6,0.6-0.9c0.2-0.3,0.2-0.6,0.2-0.9v-3.9c-1-0.4-2.1-0.7-3.3-0.9c-1.1-0.2-2.3-0.3-3.3-0.3c-2.3,0-4.1,0.5-5.5,1.4
			c-1.4,0.9-2.1,2.2-2.1,3.8c0,0.6,0.1,1.3,0.4,1.9c0.2,0.6,0.6,1.2,1.1,1.7c0.5,0.5,1.1,0.9,1.9,1.2
			C203.6,314.6,204.5,314.8,205.5,314.8z"/> <path fill="#FFFFFF" d="M224.3,292.6l7.2,9.4l0.4,0.7l0.4-0.7l7.2-9.4h3.4l-9.2,12.1l9.2,12h-3.4l-7.2-9.4l-0.4-0.6l-0.4,0.6
			l-7.2,9.4h-3.4l9.2-12l-9.2-12.1H224.3z"/> <path fill="#FFFFFF" d="M278.7,290c-0.9-1-2.2-1.9-3.7-2.5c-1.6-0.6-3.3-1-5.2-1c-2.9,0-5.1,0.5-6.4,1.6c-1.3,1.1-2,2.6-2,4.5
			c0,1,0.2,1.8,0.5,2.4c0.4,0.6,0.9,1.2,1.7,1.6c0.8,0.5,1.7,0.9,2.9,1.2c1.2,0.3,2.5,0.7,4.1,1c1.8,0.4,3.3,0.8,4.7,1.2
			c1.4,0.4,2.6,1,3.6,1.7c1,0.7,1.7,1.5,2.3,2.5c0.5,1,0.8,2.2,0.8,3.7c0,1.5-0.3,2.8-0.9,3.9c-0.6,1.1-1.4,2-2.5,2.8
			c-1,0.7-2.3,1.3-3.7,1.6c-1.4,0.4-3,0.5-4.7,0.5c-5.2,0-9.5-1.6-13.2-4.8l1.6-2.6c1.2,1.3,2.8,2.3,4.9,3.2c2,0.9,4.3,1.3,6.8,1.3
			c2.6,0,4.7-0.5,6.2-1.4c1.5-0.9,2.2-2.4,2.2-4.3c0-1-0.2-1.9-0.6-2.6c-0.4-0.7-1-1.3-1.9-1.8s-1.9-0.9-3.1-1.3
			c-1.2-0.4-2.7-0.7-4.3-1.1c-1.7-0.4-3.2-0.8-4.5-1.2c-1.3-0.4-2.4-1-3.3-1.6s-1.5-1.4-2-2.3c-0.4-0.9-0.7-2-0.7-3.4
			c0-1.5,0.3-2.9,0.9-4c0.6-1.2,1.4-2.2,2.4-3c1-0.8,2.3-1.4,3.7-1.8s3-0.6,4.7-0.6c2.2,0,4.1,0.3,5.8,1s3.3,1.6,4.6,2.8L278.7,290z
			"/> <path fill="#FFFFFF" d="M297.5,317.2c-1.8,0-3.4-0.3-4.9-1c-1.5-0.7-2.8-1.6-3.8-2.7c-1.1-1.2-1.9-2.5-2.5-4
			c-0.6-1.5-0.9-3.1-0.9-4.9c0-1.7,0.3-3.3,0.9-4.8c0.6-1.5,1.4-2.8,2.5-3.9c1.1-1.1,2.4-2,3.8-2.7c1.5-0.7,3.1-1,4.8-1
			s3.4,0.3,4.8,1c1.5,0.7,2.7,1.6,3.8,2.7c1,1.1,1.9,2.5,2.5,3.9c0.6,1.5,0.9,3.1,0.9,4.7c0,0.2,0,0.5,0,0.7c0,0.2,0,0.4-0.1,0.5
			h-20.6c0.1,1.3,0.4,2.5,0.9,3.6c0.5,1.1,1.2,2,1.9,2.8c0.8,0.8,1.7,1.4,2.7,1.9c1,0.4,2.1,0.7,3.3,0.7c0.8,0,1.6-0.1,2.4-0.3
			c0.8-0.2,1.5-0.5,2.1-0.9c0.6-0.4,1.2-0.8,1.7-1.4c0.5-0.5,0.9-1.1,1.2-1.8l2.7,0.7c-0.4,0.9-0.9,1.7-1.6,2.4
			c-0.7,0.7-1.5,1.4-2.4,1.9c-0.9,0.5-1.9,1-3,1.2C299.7,317,298.6,317.2,297.5,317.2z M306.4,303.4c-0.1-1.3-0.4-2.5-0.9-3.5
			c-0.5-1.1-1.2-2-1.9-2.8c-0.8-0.8-1.7-1.4-2.8-1.8c-1-0.4-2.2-0.6-3.3-0.6c-1.2,0-2.3,0.2-3.3,0.6c-1,0.4-2,1-2.8,1.8
			c-0.8,0.8-1.4,1.7-1.9,2.8c-0.5,1.1-0.8,2.3-0.9,3.5H306.4z"/> <path fill="#FFFFFF" d="M326.1,295.4c-2.1,0.1-4,0.6-5.6,1.8c-1.6,1.1-2.7,2.6-3.3,4.6v15h-3.1v-24.1h3v5.8
			c0.8-1.7,1.9-3.1,3.3-4.2c1.4-1.1,2.8-1.7,4.4-1.7c0.3,0,0.5,0,0.8,0c0.2,0,0.4,0,0.6,0V295.4z"/> <path fill="#FFFFFF" d="M337.5,316.7l-9.8-24.1h3.3l8.3,21.2l8.3-21.2h3.1l-9.8,24.1H337.5z"/> <path fill="#FFFFFF" d="M354.8,287.6v-4.6h3.1v4.6H354.8z M354.8,316.7v-24.1h3.1v24.1H354.8z"/> <path fill="#FFFFFF" d="M363.2,304.6c0-1.7,0.3-3.3,0.9-4.8c0.6-1.5,1.4-2.8,2.5-4c1.1-1.1,2.3-2,3.8-2.7c1.5-0.6,3.1-1,4.9-1
			c2.3,0,4.3,0.5,6,1.5c1.7,1,3,2.4,3.8,4.2l-3.1,1c-0.7-1.2-1.6-2.2-2.8-2.9c-1.2-0.7-2.5-1-4-1c-1.2,0-2.4,0.2-3.4,0.7
			c-1.1,0.5-2,1.2-2.8,2c-0.8,0.8-1.4,1.9-1.9,3c-0.4,1.2-0.7,2.5-0.7,3.8c0,1.4,0.2,2.6,0.7,3.8c0.5,1.2,1.1,2.2,1.9,3.1
			c0.8,0.9,1.7,1.6,2.8,2.1c1.1,0.5,2.2,0.8,3.4,0.8c0.8,0,1.5-0.1,2.3-0.3c0.8-0.2,1.5-0.5,2.1-0.9c0.6-0.4,1.2-0.8,1.7-1.3
			c0.5-0.5,0.8-1,1-1.6l3.1,0.9c-0.3,0.9-0.8,1.7-1.5,2.4s-1.4,1.4-2.3,1.9c-0.9,0.5-1.9,1-2.9,1.2c-1.1,0.3-2.2,0.4-3.3,0.4
			c-1.8,0-3.4-0.3-4.9-1c-1.5-0.7-2.8-1.6-3.8-2.7c-1.1-1.2-1.9-2.5-2.5-4C363.5,307.9,363.2,306.3,363.2,304.6z"/> <path fill="#FFFFFF" d="M400.7,317.2c-1.8,0-3.4-0.3-4.9-1c-1.5-0.7-2.8-1.6-3.8-2.7c-1.1-1.2-1.9-2.5-2.5-4
			c-0.6-1.5-0.9-3.1-0.9-4.9c0-1.7,0.3-3.3,0.9-4.8s1.4-2.8,2.5-3.9c1.1-1.1,2.4-2,3.8-2.7c1.5-0.7,3.1-1,4.8-1s3.4,0.3,4.8,1
			c1.5,0.7,2.7,1.6,3.8,2.7c1,1.1,1.9,2.5,2.5,3.9c0.6,1.5,0.9,3.1,0.9,4.7c0,0.2,0,0.5,0,0.7c0,0.2,0,0.4-0.1,0.5h-20.6
			c0.1,1.3,0.4,2.5,0.9,3.6c0.5,1.1,1.2,2,1.9,2.8c0.8,0.8,1.7,1.4,2.7,1.9c1,0.4,2.1,0.7,3.3,0.7c0.8,0,1.6-0.1,2.4-0.3
			s1.5-0.5,2.1-0.9c0.6-0.4,1.2-0.8,1.7-1.4c0.5-0.5,0.9-1.1,1.2-1.8l2.7,0.7c-0.4,0.9-0.9,1.7-1.6,2.4c-0.7,0.7-1.5,1.4-2.4,1.9
			c-0.9,0.5-1.9,1-3,1.2C403,317,401.9,317.2,400.7,317.2z M409.6,303.4c-0.1-1.3-0.4-2.5-0.9-3.5c-0.5-1.1-1.2-2-1.9-2.8
			c-0.8-0.8-1.7-1.4-2.8-1.8c-1-0.4-2.2-0.6-3.3-0.6c-1.2,0-2.3,0.2-3.3,0.6c-1,0.4-2,1-2.8,1.8c-0.8,0.8-1.4,1.7-1.9,2.8
			c-0.5,1.1-0.8,2.3-0.9,3.5H409.6z"/> <path fill="#FFFFFF" d="M425.4,317.2c-1.9,0-3.7-0.3-5.5-0.9c-1.8-0.6-3.3-1.5-4.6-2.7l1.4-2.1c1.4,1.1,2.7,1.9,4.1,2.5
			c1.4,0.6,2.9,0.8,4.5,0.8c1.9,0,3.5-0.4,4.6-1.2c1.2-0.8,1.7-1.9,1.7-3.4c0-0.7-0.2-1.2-0.5-1.7c-0.3-0.4-0.8-0.8-1.4-1.2
			c-0.6-0.3-1.4-0.6-2.3-0.9c-0.9-0.3-2-0.5-3.2-0.8c-1.4-0.3-2.6-0.7-3.6-1c-1-0.3-1.9-0.7-2.5-1.2c-0.7-0.4-1.2-1-1.5-1.6
			c-0.3-0.6-0.5-1.4-0.5-2.4c0-1.2,0.2-2.3,0.7-3.2c0.5-0.9,1.1-1.7,1.9-2.3s1.8-1.1,2.9-1.4c1.1-0.3,2.3-0.5,3.5-0.5
			c1.9,0,3.5,0.3,5,0.9c1.5,0.6,2.7,1.4,3.7,2.4l-1.5,1.9c-0.9-0.9-2-1.6-3.3-2.1c-1.3-0.5-2.6-0.7-4-0.7c-0.8,0-1.6,0.1-2.3,0.3
			c-0.7,0.2-1.3,0.4-1.9,0.8c-0.5,0.4-1,0.8-1.3,1.4c-0.3,0.6-0.5,1.2-0.5,2c0,0.6,0.1,1.2,0.3,1.6c0.2,0.4,0.6,0.7,1.1,1
			c0.5,0.3,1.1,0.6,1.9,0.8c0.8,0.2,1.7,0.5,2.8,0.7c1.5,0.4,2.9,0.7,4.1,1.1c1.2,0.4,2.2,0.8,2.9,1.3c0.8,0.5,1.4,1.1,1.8,1.8
			c0.4,0.7,0.6,1.6,0.6,2.6c0,2.2-0.8,4-2.5,5.3C430.6,316.5,428.3,317.2,425.4,317.2z"/> </g> </g> </symbol><symbol viewBox="0 274 500 168" id="icon-logo_mobile"><title>logo_mobile</title> <g id="logo_mobile-Layer_4" display="none"> <rect y="266.3" display="inline" fill="#2A94D2" width="503.2" height="221.6"/> </g> <g id="logo_mobile-Layer_2"> <g enable-background="new    "> <path fill="#FFFFFF" d="M49.8,366.5L49.3,384H1.9v-3.6c3.2,0,5.4-0.5,6.3-1.4c0.9-0.9,1.4-2.6,1.4-4.8v-33.4
			c0-1.5-0.2-2.7-0.4-3.6c-0.3-0.8-1-1.5-2.1-2s-2.8-0.8-5.2-0.8v-3.6h44.2l0.7,13.8h-3.6c-0.8-3.1-1.8-5.2-2.8-6.6
			c-1.1-1.3-2.2-2.2-3.6-2.4c-1.3-0.3-3.3-0.4-5.9-0.4H20.8v18.8h5.4c1.8,0,3.2-0.2,4.2-0.5c0.9-0.3,1.6-0.9,1.9-1.8
			c0.3-0.9,0.6-2.3,0.8-4.3h3.8v17.7h-3.6c-0.1-2-0.3-3.4-0.8-4.3c-0.4-0.9-1.1-1.6-2-1.8c-0.9-0.3-2.2-0.5-4.2-0.5h-5.5v12.5
			c0,2.1,0.1,3.6,0.2,4.6c0.1,1,0.4,1.8,0.8,2.4c0.4,0.7,1.2,1.1,2.2,1.4c1,0.2,2.5,0.4,4.4,0.4h4.2c1.8,0,3.5-0.2,5.2-0.7
			c1.7-0.4,3.3-1.7,4.8-3.5c1.6-1.9,2.7-4.8,3.3-8.9h3.7V366.5z"/> <path fill="#FFFFFF" d="M102.3,366.2L102,384H54.6v-3.6c3.2,0,5.4-0.5,6.3-1.4s1.4-2.6,1.4-4.8v-33.4c0-1.6-0.2-2.8-0.5-3.6
			c-0.3-0.8-1-1.5-2.2-2s-2.8-0.7-5.1-0.7v-3.6h26.7v3.6c-2.2,0-3.9,0.2-5.1,0.7c-1.2,0.4-1.9,1.1-2.2,1.9c-0.3,0.8-0.5,2.1-0.5,3.7
			v30.6c0,2.4,0.1,4.2,0.3,5.2c0.2,1.1,0.9,1.8,1.9,2.3c1.1,0.5,2.8,0.8,5.2,0.8c3,0,5.7-0.2,7.9-0.7c2.2-0.4,4.3-1.7,6.2-3.7
			c1.9-2,3.1-5,3.6-9.1H102.3z"/> <path fill="#FFFFFF" d="M179.1,383.4h-3.7c-0.6-2.2-1.4-4.2-2.7-6.1c-2,2.1-4.2,3.8-6.8,5.3c-2.6,1.5-6,2.2-10.4,2.2
			c-4.8,0-9.2-1.2-13.3-3.5s-7.3-5.6-9.8-9.8c-2.4-4.2-3.7-8.8-3.7-14.1c0-3.8,0.7-7.2,2-10.7c1.3-3.3,3.2-6.3,5.7-8.9
			c2.4-2.6,5.3-4.6,8.8-6.1s7.1-2.2,11.1-2.2c6.7,0,12.2,2.2,16.5,6.5c0.6-1.1,1.2-2.8,1.7-4.9h3.5l0.7,19.6h-3.8
			c-0.7-3.3-1.9-6.2-3.7-8.8c-1.8-2.6-3.9-4.6-6.3-5.9c-2.4-1.3-5-2.1-7.7-2.1c-3,0-5.7,0.8-8.1,2.4c-2.4,1.7-4.2,4.2-5.6,7.5
			s-2,7.5-2,12.5c0,4.8,0.6,8.9,1.7,12.2c1.1,3.2,2.5,5.7,4.2,7.3c1.7,1.7,3.3,2.8,5,3.3s3.2,0.9,4.8,0.9c3.2,0,6.1-0.8,8.7-2.6
			c2.6-1.8,4.7-3.9,6.3-6.5c1.7-2.6,2.8-5.2,3.3-7.8h3.8L179.1,383.4L179.1,383.4z"/> <path fill="#FFFFFF" d="M248.2,384h-26.2v-3.6c2.2,0,3.8-0.2,4.8-0.7c1.1-0.5,1.8-1.2,2.1-2c0.3-0.9,0.5-2.1,0.5-3.5v-16h-24.7v16
			c0,2.2,0.4,3.8,1.3,4.8c0.9,1,3,1.5,6.2,1.5v3.6h-26.3v-3.6c2.1,0,3.8-0.2,4.8-0.7c1.1-0.5,1.8-1.2,2.2-2c0.3-0.9,0.5-2.1,0.5-3.6
			v-33.4c0-1.5-0.2-2.7-0.5-3.5c-0.3-0.8-1-1.5-2.1-2c-1.1-0.5-2.8-0.8-4.9-0.8V331h26.3v3.6c-3.2,0-5.3,0.5-6.2,1.4
			c-0.9,1-1.4,2.6-1.4,4.8v13.1h24.7v-13.1c0-1.5-0.2-2.7-0.4-3.5c-0.2-0.8-1-1.5-2-2c-1.1-0.5-2.7-0.8-5-0.8V331h26.2v3.6
			c-2.2,0-3.8,0.2-4.9,0.8s-1.8,1.2-2.1,2s-0.4,2-0.4,3.5v33.4c0,1.4,0.2,2.6,0.4,3.4c0.2,0.8,1,1.5,2.1,2.1c1.1,0.6,2.7,0.8,5,0.8
			L248.2,384L248.2,384z"/> <path fill="#FFFFFF" d="M304.9,384h-25.1v-3.6c2.1,0,3.7-0.2,4.7-0.4c1-0.3,1.4-1,1.4-2.2c0-0.7-0.2-1.6-0.5-2.4l-2.5-6.2h-17.2
			l-1.3,3.4c-0.8,1.9-1.1,3.3-1.1,4.2c0,1.6,0.6,2.6,1.8,3s2.7,0.7,4.2,0.7v3.6H251v-3.6c1.5,0,2.7-0.2,3.8-0.8c1-0.6,2-1.6,2.9-3.1
			c0.9-1.5,1.9-3.7,3-6.5l15.3-40.2h3.8l16.2,41.4c1.2,2.9,2,4.9,2.6,5.9c0.6,1,1.3,1.8,2.2,2.4c1,0.6,2.3,0.8,4.1,0.8L304.9,384
			L304.9,384z M281.5,365.2l-7.3-18.6l-7,18.6H281.5z"/> <path fill="#FFFFFF" d="M365.1,384h-14.3c-0.5-0.6-1.2-1.4-1.9-2.5c-0.7-1.1-1.6-2.4-2.5-3.8c-0.9-1.5-1.7-2.7-2.2-3.7l-3.6-6
			c-1.6-2.7-2.8-4.5-3.7-5.5c-0.8-1-1.8-1.6-2.8-1.9s-2.8-0.4-5.4-0.4h-2v13.9c0,1.5,0.2,2.7,0.5,3.5c0.3,0.9,1.1,1.6,2.2,2
			c1.2,0.5,2.8,0.7,5.1,0.7v3.6h-26.7v-3.6c3.2,0,5.3-0.5,6.2-1.4c0.9-0.9,1.4-2.6,1.4-4.8v-33.5c0-2.2-0.4-3.9-1.3-4.8
			c-0.9-0.9-3-1.4-6.3-1.4v-3.7l12.3-0.4c0.9-0.1,2-0.1,3.2-0.1s2.3,0,3.4,0c0.8,0,2.2,0,4,0.1c2.7,0.1,5.1,0.2,7.4,0.5
			c2.3,0.2,4.1,0.5,5.4,0.9c2,0.5,3.8,1.3,5.6,2.5c1.8,1.2,3.2,2.7,4.3,4.6c1.1,1.9,1.7,4.1,1.7,6.6c0,1.8-0.4,3.5-1.2,5.2
			c-0.8,1.7-2,3.2-3.8,4.5c-1.8,1.3-4,2.3-6.8,3.1c1.9,1.1,3.5,2.5,4.8,4.2c1.3,1.7,3.4,4.7,6.2,9.2c1.7,2.5,3,4.4,4.1,5.8
			c1.1,1.3,2.1,2.2,3,2.7c0.9,0.4,2.1,0.8,3.4,0.9L365.1,384L365.1,384z M343.1,345c0-4.2-1.2-7.1-3.8-8.4
			c-2.6-1.4-5.9-2.1-10.1-2.1c-0.6,0-1,0-1.3,0c-0.3,0-0.7,0-1.1,0v21.4h2.5c3.9,0,7.2-0.7,9.9-1.9
			C341.7,352.7,343.1,349.7,343.1,345z"/> <path fill="#FFFFFF" d="M424.6,384h-14.2c-0.5-0.6-1.2-1.4-1.9-2.5c-0.8-1.1-1.6-2.4-2.5-3.8c-0.9-1.5-1.7-2.7-2.2-3.7l-3.7-6
			c-1.6-2.7-2.8-4.5-3.7-5.5c-0.8-1-1.8-1.6-2.8-1.9s-2.8-0.4-5.4-0.4h-2v13.9c0,1.5,0.2,2.7,0.5,3.5c0.3,0.9,1.1,1.6,2.2,2
			c1.2,0.5,2.8,0.7,5.1,0.7v3.6h-26.7v-3.6c3.2,0,5.3-0.5,6.2-1.4c0.9-0.9,1.4-2.6,1.4-4.8v-33.5c0-2.2-0.4-3.9-1.3-4.8
			c-0.9-0.9-3-1.4-6.3-1.4v-3.7l12.3-0.4c0.9-0.1,2-0.1,3.2-0.1s2.3,0,3.4,0c0.8,0,2.2,0,4,0.1c2.7,0.1,5.1,0.2,7.4,0.5
			c2.3,0.2,4.1,0.5,5.4,0.9c2,0.5,3.8,1.3,5.6,2.5c1.8,1.2,3.2,2.7,4.3,4.6c1.1,1.9,1.7,4.1,1.7,6.6c0,1.8-0.4,3.5-1.2,5.2
			c-0.8,1.7-2,3.2-3.8,4.5c-1.8,1.3-4,2.3-6.8,3.1c1.9,1.1,3.5,2.5,4.8,4.2c1.3,1.7,3.4,4.7,6.2,9.2c1.7,2.5,3,4.4,4.1,5.8
			c1.1,1.3,2.1,2.2,3,2.7c0.9,0.4,2.1,0.8,3.4,0.9L424.6,384L424.6,384z M402.5,345c0-4.2-1.2-7.1-3.8-8.4
			c-2.6-1.4-5.9-2.1-10.1-2.1c-0.6,0-1,0-1.3,0c-0.3,0-0.7,0-1.1,0v21.4h2.5c3.9,0,7.2-0.7,9.9-1.9
			C401.2,352.7,402.5,349.7,402.5,345z"/> <path fill="#FFFFFF" d="M484.1,357.4c0,4.8-1.2,9.3-3.4,13.6c-2.3,4.3-5.8,7.6-10.2,10.2c-4.5,2.6-9.8,3.8-16,3.8
			c-5,0-9.4-0.8-13.2-2.4c-3.8-1.6-6.9-3.8-9.3-6.5c-2.4-2.8-4.2-5.7-5.4-8.9c-1.2-3.2-1.8-6.5-1.8-9.8c0-4.7,1.1-9.2,3.3-13.4
			c2.2-4.2,5.6-7.6,10.1-10.2c4.5-2.6,9.8-3.8,16.1-3.8c5.7,0,10.5,0.9,14.5,2.8c4,1.8,7.1,4.2,9.3,7c2.2,2.8,3.8,5.8,4.8,8.9
			C483.6,351.7,484.1,354.6,484.1,357.4z M471.3,357.2c0-3-0.2-5.8-0.8-8.5c-0.5-2.7-1.4-5.1-2.7-7.2c-1.2-2.2-3-3.8-5.2-5.2
			c-2.3-1.2-5-1.9-8.3-1.9c-4.5,0-8,1.1-10.5,3.3c-2.5,2.2-4.2,5-5.2,8.4c-0.9,3.3-1.3,7-1.3,11c0,2.2,0.2,4.5,0.4,6.8
			c0.2,2.4,1,4.8,2.1,7.3s2.8,4.6,5.2,6.3c2.4,1.8,5.5,2.6,9.3,2.6c3.8,0,6.8-0.9,9.2-2.7c2.3-1.8,4.1-3.9,5.2-6.5
			c1.1-2.6,1.7-5,2-7.3C471.2,361.6,471.3,359.3,471.3,357.2z"/> </g> </g> </symbol><symbol viewBox="0 0 322.7 322.7" id="icon-money_transfer"><title>money_transfer</title> <path d="M37.8,50.3L17.4,29.9h0v74.7h74.7v0L72,84.5c87.6-81.9,209.7-37,234,76.8C308.2,1,130.4-41.7,37.8,50.3z"/> <path d="M285.6,272.4l20.4,20.4h0v-74.7h-74.7v0l20.1,20.1c-87.6,81.9-209.7,37-234-76.8C15.2,321.7,193,364.4,285.6,272.4z"/> <g> <path d="M150.8,250.6v-19.7c-13.9-0.6-27.4-4.4-35.2-8.9l6.2-24.3c8.7,4.8,20.9,9.1,34.4,9.1c11.8,0,19.9-4.6,19.9-12.9
		c0-7.9-6.6-12.9-22-18c-22.2-7.5-37.3-17.8-37.3-37.9c0-18.2,12.9-32.5,35-36.9V81.4h20.3v18.2c13.9,0.6,23.2,3.5,30.1,6.8l-6,23.4
		c-5.4-2.3-14.9-7-29.8-7c-13.5,0-17.8,5.8-17.8,11.6c0,6.8,7.3,11.2,24.9,17.8c24.7,8.7,34.6,20.1,34.6,38.8
		c0,18.4-13.1,34.2-36.9,38.3v21.1H150.8z"/> </g> </symbol><symbol viewBox="0 0 500 500" id="icon-piggy_bank"><title>piggy_bank</title> <g id="piggy_bank-Layer_4"> <path d="M289.1,120.7c27.4,0,53.5,4.2,77.1,11.7c9-13.2,14.4-28.9,14.4-45.7c0-46.8-41-84.9-91.5-84.9s-91.5,38-91.5,84.9
		c0,16.9,5.4,32.4,14.4,45.7C235.8,124.9,261.7,120.7,289.1,120.7z"/> <path d="M450.4,431c-1.8-7,0.3-15.9,4.8-20.7c51.5-57.2,30.3-120.7,16.7-150.2c-3.8-10.9-3.3-16.4,1.7-31.1c6.2-18.3,5.3-16,5.7-17
		c0,0,12.7-33.9-12-53c-25.8-19.9-41.6,13.4-41.6,13.4c23.9-12.9,29.8,2.3,31.4,5.7c2,4.2,5.7,20.2-9,23.7c-8,2-14,0.3-18.4-3
		c-1.5-1.2-2.8-2.7-4.5-4c-64.9-59.5-169.2-66.9-244-23.7c-2.3,1.3-3.5,4.2-2.8,6.9c6.2,22.1-2.8,44.1-22.4,55.9
		c-1.3,0.8-2.8,1.2-5.2,2c0.8-1.7,1.2-2.2,1.5-2.7c23.7-27.3,6.4-67.9-20.2-79.1c-16.2-6.9-64-8.9-67.4-1.8
		c-3.3,7.2,2.2,11.7,5.9,16.6c13.4,18.2,26.9,36.3,41.1,55.4c-8.9,9.9-17.1,20.2-26.3,29.4c-13,12.9-28.4,21.1-47.7,21.1
		c-11.7,0-17.4,7.2-16.6,19.2c1,13.9,2.3,27.9,4.2,41.8c2.3,17.9,10.5,25.6,28.6,27.6c13.9,1.7,27.3,5.2,38.8,12.7
		c13,8.7,18.7,14,31.3,23.4c4,3,8,11,6.5,18.6c-2.5,11.7-4.5,23.1-7.2,34.8c-5.4,22.9,1.3,32.3,24.4,37.1c12.2,2.5,35.3,5,47.7,6
		c21.4,1.8,29.1-6,33.9-26.9c1.2-5,3-12.9,4.3-18.4c37.5,8.9,74.4,8.4,111.5-1c1.2,5.5,4.5,17.6,5.4,22.1
		c5.9,28.9,21.7,27.8,45.3,23.9c9.4-1.5,24.7-3.5,34.1-4.3c26.9-2.5,32.6-11.9,26.9-36.3C452.8,438.2,455.1,448.2,450.4,431z
		 M116.9,315.4c-11.4,0.2-21.7-10.2-21.6-21.7c0.2-11.4,9.9-20.7,21.2-20.9c11.7-0.2,21.1,8.9,21.2,20.6
		C138,305.4,128.6,315.4,116.9,315.4z M377.3,200.2c-3,5.8-10.4,8.1-16.7,5.6c-42.3-17.2-90-18.7-134.2-3.5
		c-6.6,2.2-13.9-0.5-16.5-6.5c-2.6-6.1,1.4-13.6,8.9-16.2c49.7-17,103.3-15.3,151,4.1C377,186.6,380.3,194.3,377.3,200.2z"/> </g> </symbol><symbol viewBox="0 0 500 500" id="icon-professionals"><title>professionals</title> <g id="professionals-Layer_1_copy"> <g> <path d="M438.2,272.4v-23.1c21.6-12.6,36.5-38.7,36.5-68.9c0-42.4-29.3-76.8-65.5-76.8c-36.1,0-65.5,34.5-65.5,76.8
			c0,30.2,14.9,56.3,36.5,68.9v23.1c-20.9,0-54.8,17.1-54.8,38V350h167.4v-39.5C493,289.6,459.1,272.4,438.2,272.4z"/> </g> </g> <g id="professionals-Layer_1_copy_2"> <g> <path d="M119.6,272.4v-23.1c21.6-12.6,36.5-38.7,36.5-68.9c0-42.4-29.3-76.8-65.5-76.8S25.2,138,25.2,180.3
			c0,30.2,14.9,56.3,36.5,68.9v23.1c-20.9,0-54.8,17.1-54.8,38V350h167.4v-39.5C174.3,289.6,140.6,272.4,119.6,272.4z"/> </g> <g> <polygon points="259.9,416.6 250.1,396.5 240.1,416.6 217.8,419.7 233.9,435.5 230.1,457.6 250.1,447.2 269.9,457.6 266.1,435.5 
			282.2,419.7 		"/> <polygon points="493,419.7 470.9,416.6 460.9,396.5 450.9,416.6 428.8,419.7 444.8,435.5 441.1,457.6 460.9,447.2 480.7,457.6 
			476.9,435.5 		"/> <polygon points="365.3,416.6 355.5,396.5 345.5,416.6 323.4,419.7 339.3,435.5 335.5,457.6 355.5,447.2 375.3,457.6 371.5,435.5 
			387.6,419.7 		"/> <polygon points="154.5,416.6 144.7,396.5 134.7,416.6 112.4,419.7 128.5,435.5 124.7,457.6 144.7,447.2 164.5,457.6 160.7,435.5 
			176.8,419.7 		"/> <polygon points="49.1,416.6 39.1,396.5 29.3,416.6 7,419.7 23.1,435.5 19.3,457.6 39.1,447.2 59.1,457.6 55.2,435.5 71.4,419.7 		
			"/> </g> </g> <g id="professionals-Layer_1_1_"> <g> <path fill="#2A94D2" d="M146.3,356.8v-52.6c0-13.4,9.2-26.5,25.8-36.9c11.6-7.2,25.4-12.2,37.6-13.5v-16.5
			c-26.1-17-42.2-48.5-42.2-83.5c0-52.8,37.1-95.7,82.6-95.7s82.6,42.9,82.6,95.7c0,35-16.1,66.7-42.2,83.5v16.4
			c27.3,3.1,63.4,23.8,63.4,50.5v52.8H146.3z"/> <path fill="#FFFFFF" d="M249.9,64.8c41.8,0,75.7,39.8,75.7,88.9c0,35-17.2,65.2-42.2,79.7V260c24.2,0,63.4,19.8,63.4,44V350H153.1
			v-45.8c0-24.2,39.2-44,63.4-44v-26.7c-25-14.5-42.2-44.7-42.2-79.7C174.3,104.6,208.1,64.8,249.9,64.8 M249.9,51.1
			c-24.3,0-47,10.9-64,30.9c-16.4,19.3-25.4,44.7-25.4,71.8c0,36,16,68.6,42.2,87.2v7c-11.5,2.2-23.8,7-34.3,13.5
			c-18.7,11.6-29.1,26.8-29.1,42.7V350v13.7H153h193.6h13.7V350v-45.8c0-15.9-10.3-31-29.1-42.7c-10.5-6.6-22.8-11.3-34.3-13.5v-7
			c26.3-18.6,42.2-51.3,42.2-87.2c0-26.9-9-52.5-25.4-71.8C297,62.1,274.3,51.1,249.9,51.1L249.9,51.1z"/> </g> </g> </symbol><symbol viewBox="0 0 400 400" id="icon-taxes"><title>taxes</title> <path d="M64.1,325.8H39.3c-6.6,0-12-5.4-12-12V188.4c0-6.6,5.4-12,12-12h24.8c6.6,0,12,5.4,12,12v125.4
	C76.1,320.4,70.7,325.8,64.1,325.8z"/> <path d="M162.4,325.8h-24.8c-6.6,0-12-5.4-12-12V188.4c0-6.6,5.4-12,12-12h24.8c6.6,0,12,5.4,12,12v125.4
	C174.4,320.4,169,325.8,162.4,325.8z"/> <path d="M260.8,325.8H236c-6.6,0-12-5.4-12-12V188.4c0-6.6,5.4-12,12-12h24.8c6.6,0,12,5.4,12,12v125.4
	C272.8,320.4,267.4,325.8,260.8,325.8z"/> <path d="M358.9,326.9h-24.8c-6.6,0-12-5.4-12-12V189.5c0-6.6,5.4-12,12-12h24.8c6.6,0,12,5.4,12,12v125.4
	C370.9,321.5,365.5,326.9,358.9,326.9z"/> <path d="M388,400H12c-6.6,0-12-5.4-12-12v-26.3c0-6.6,5.4-12,12-12h376c6.6,0,12,5.4,12,12V388C400,394.6,394.6,400,388,400z"/> <path d="M386.9,124.3C339.1,91.5,212,4.3,212,4.3s-4.4-3.7-10.9-4.2v0c-0.1,0-0.3,0-0.4,0c-0.2,0-0.3,0-0.5,0c-0.2,0-0.3,0-0.5,0
	c-0.1,0-0.3,0-0.4,0v0c-6.5,0.5-10.9,4.2-10.9,4.2S61.4,91.5,13.6,124.3c-8.6,5.9-13.1,8.9-13.1,16.6c0,8.9,7.3,13.9,16.1,13.9
	h182.7h1.8h182.7c8.9,0,16.1-5,16.1-13.9C400,133.2,395.5,130.2,386.9,124.3z"/> </symbol><symbol viewBox="0 0 500 500" id="icon-texas"><title>texas</title> <g id="texas-Layer_1"> <g> <path d="M1,209c34.1,1.3,126.8,4,138,4c2-65.5,0.7-132.1,2.7-198.9c35.7,0,71.2,0,107.8,0c0,10.9,0,21.8,0,32.6
			c0.1,15.9,0.3,31.9,0.2,47.8c0,3.4,1,5.5,4.1,6.8c4.9,1.9,33.5,14.2,41.8,15c6.8,0.6,6.8,0.8,10.8,5.8c4.6-1.4,9.4-2.9,14.4-4.5
			c2.3,3.5,4.6,6.8,6.9,10.3c0.7-0.2,11.6-3.8,15.5,1.3c1.6,2.1,8.7-1.6,10.8-2.9c0.9,2.6,8,1.5,10.7-1.6c3.2,2.2,6.1,3.9,10.2,2
			c1.6-0.7,14.3,6.3,17.9,3.3c1.6-1.3,6.8-4.4,7.5-4.5c6-0.7,22.6-1.7,23.4-2.7c2.6-3.3,4.8-2.6,7.9-0.9
			c6.7,3.7,30.7,14.7,36.5,13.3c1.2-0.3,2.5-0.2,4.1-0.3c0.8,11.4,3.4,55.5,4.4,66.4c0.2,1.9,1.6,4.2,3.1,5.5
			c4,3.4,7.2,6.8,6.3,12.7c-0.2,1.5,0.8,3.4,1.7,4.9c2.6,4.3,5.1,8.7,8.3,12.6c4.3,5.2,5.4,10.3,1.7,16.2
			c-5.7,9.3-4.8,19.3-2.4,29.2c1.1,4.4-0.1,7.5-2.9,10.5c-3.1,3.3-5.9,6.8-2.1,10.4c-10.7,6.5-39.3,15.3-36.7,21
			c-1.1,0.7-2.9,2-4.8,3.2c-2.7,1.6-3.6,4-5,6.8c-2.2,4.7-6.4,9.6-10.9,11.7c-8,3.6-14.1,9.5-21.2,14c-1.2,0.7-19.4,4.6-17.8,8.8
			c-3.5,2.6-23.4,17.3-21.8,16.4c-1.3,2.7-2.6,4.7-3.4,6.9c-1.1,3-4,11.1-5.2,13.5c-2.4,4.7-6.3,9.6-6.3,14.4c0,5.9-7,11.3-2.1,16
			c0,4-0.7,6.9,0.1,9.4c2.4,7.6,5.3,15,8,22.5c0.8,2.3,1.3,4.4,4.6,4.9c1.5,0.2,2.6,2.7,3.9,4.1c-3,2.5-9.4,8.1-9.6,7.8
			c-7.2-8.2-33.6-10.5-36.8-11.6c-10.1-3.7-32.6-12.1-33-13.1c-1-2.4-1.8-4.9-2.3-7.4c-1.2-5.6-12.8-21.7-13.1-26.3
			c-0.2-2.9-1.1-5.9-0.8-8.7c0.5-6.8-14.5-17.1-16.7-19.9c-4.8-5.9-9.2-12.1-13.7-18.2c-1-1.3-1.8-2.7-2.5-4.1
			c-1.7-3.9-3.6-7.7-4.9-11.7c-5-16.1-14-29.5-27.5-39.7c-2.2-1.7-14.4-12.2-20.8-12.5c-8.2-0.4-26.4-2.8-26.6-2.3
			c-2.2,4.2-6.4,3.5-9.9,3.8c-2.8,0.3-4,1.4-4.6,3.9c-0.6,2.9-1.8,5.6-2.2,8.5c-1.3,8.9-6.6,15.3-12.8,21.2c-3.9,3.6-8.3,1-11.1-0.8
			c-13.6-8.5-26.9-17.7-40.1-26.9c-1.4-1-2.2-3.1-2.9-4.9c-5-12.4-9.8-24.8-14.8-37.1c-0.6-1.6-1.5-3.6-2.9-4.3
			c-17.6-9-28.6-25.3-42.1-38.8C15.9,230,3.5,214,1,210C1,209.6,1,209.3,1,209z"/> </g> </g>  </symbol><symbol viewBox="0 0 413 413" id="icon-thumbs"><title>thumbs</title> <path d="M375.3,182c0,0,2.3,16.3-4.7,25.3s1,13.3,1,13.3s26,4.7,24.3,27.7S380,272,380,272s-13,8.3-2,14.7
	c11,6.3,16.3,13.7,16.3,24.7s-3.3,16.7-19,26.3c0,0-13.3,5.3-5,17c8.3,11.7,8,23.7-5.3,33c-13.3,9.3-32,17.8-60.3,22
	c-28.3,4.2-103.3,3.7-116.7,1.3s-59-4.3-90.3-19.3s-42.3-17-48.3-17S23,373.3,23,373.3v-148c0,0,24.7,1.7,34.7-16.3s25-40.3,29-43.7
	c4-3.3,21.3-21.3,26.7-27.7c5.3-6.3,32.7-40,37-47c4.3-7,19.3-28,23-40.6c0,0,7.7-16.4,9.7-28c0,0,3-24,23-21.2
	c0,0,45.3,8.5,29.7,63.5c0,0-9,30.7-24.7,60c0,0-9.3,30.2,2.3,39.3c12.3,9.7,14,6.3,24,6.7c10,0.3,57.3-6.3,67-8.3
	C314,160,372.3,150.3,375.3,182z"/> </symbol><symbol viewBox="0 0 500 500" id="icon-translate"><title>translate</title> <g id="translate-Layer_1"> <path d="M238.2,0H50C22.4,0,0,22.4,0,50v201.1c0,27.6,22.4,50,50,50h188.2c27.6,0,50-22.4,50-50V50C288.2,22.4,265.8,0,238.2,0z
		 M261,243.6c0,16.1-13,29.1-29.1,29.1H56.2c-16.1,0-29.1-13-29.1-29.1V57.5c0-16.1,13-29.1,29.1-29.1H221c22.1,0,40,17.9,40,40
		V243.6z"/> <path d="M230.1,211.6c-31.1,0.2-51.2-7.6-65.1-16.4c21.6-22.3,33.4-47.1,37.7-71.7h34.4V83.7h-65.6v-21h-47.7v21H58v39.8h114.3
		c0,0-4.6,27.2-30.2,53.7c-12.8-10.7-23.5-32.8-23.5-32.8l-27.3,13c11.6,23.9,26.5,38.7,26.6,38.8c-20.7,11.9-42.7,15.8-59.9,15.6
		v30c0,0,46,3,83.3-26c35,26.1,76.3,24.3,76.3,24.3S284.2,211.2,230.1,211.6z"/> </g> <g id="translate-Layer_2_1_"> <g> <polygon points="340.9,357.3 373.4,357.3 357.5,305.8 		"/> <path d="M451.5,198.9H263.4c-27.6,0-50,22.4-50,50V450c0,27.6,22.4,50,50,50h188.2c27.6,0,50-22.4,50-50V248.9
			C501.5,221.3,479.2,198.9,451.5,198.9z M389.6,410.3l-10.7-31h-43.1l-10.5,31h-33.9l53.2-138.5h25.9l53,138.5H389.6z"/> </g> </g> </symbol><symbol viewBox="0 0 506.4 506.4" id="icon-wallet"><title>wallet</title> <path d="M102.2,470.3c-9.9,0-18-8.1-18-18v0c0-9.9,8.1-18,18-18h388.2V180.4c0-8.2-6.8-15-15-15h-430c-19.2,0-35,15.8-35,35v270
	c0,19.2,15.8,35,35,35h430c8.2,0,15-6.8,15-15v-20.1H102.2z"/> <polygon points="431.7,131.4 341.6,1 152.9,131.4 "/> </symbol></svg>