<svg baseProfile="tiny" xmlns="http://www.w3.org/2000/svg" preserveAspectRatio="xMinYMin meet" viewBox="0 0 3469 508" width="3469" height="508"><path d="M360 .8H90C76.2.8 65 12 65 25.8V428c0 13.8 11.2 25 25 25h270c13.8 0 25-11.2 25-25V25.8c0-13.8-11.2-25-25-25zm-200 390c0 16.6-13.4 30-30 30s-30-13.4-30-30 13.4-30 30-30 30 13.4 30 30zm0-95c0 16.6-13.4 30-30 30s-30-13.4-30-30 13.4-30 30-30 30 13.4 30 30zm0-95c0 16.6-13.4 30-30 30s-30-13.4-30-30 13.4-30 30-30 30 13.4 30 30zm95 190c0 16.6-13.4 30-30 30s-30-13.4-30-30 13.4-30 30-30c16.5 0 30 13.4 30 30zm0-95c0 16.6-13.4 30-30 30s-30-13.4-30-30 13.4-30 30-30c16.5 0 30 13.4 30 30zm0-95c0 16.6-13.4 30-30 30s-30-13.4-30-30 13.4-30 30-30c16.5 0 30 13.4 30 30zm94.9 190c0 16.6-13.4 30-30 30s-30-13.4-30-30v-95c0-16.6 13.4-30 30-30s30 13.4 30 30v95zm0-190c0 16.6-13.4 30-30 30s-30-13.4-30-30 13.4-30 30-30 30 13.4 30 30zm.1-94.7c0 16.6-13.4 30-30 30H130c-16.6 0-30-13.4-30-30V66.9c0-16.6 13.4-30 30-30h190c16.6 0 30 13.4 30 30v39.2z"/><g transform="translate(454)"><g><g enable-background="new" fill="#fff"><path d="M59.7 240.2l-.5 21H2.3v-4.3c3.9 0 6.5-.6 7.6-1.7 1.1-1.1 1.7-3.1 1.7-5.8v-40.1c0-1.8-.2-3.2-.5-4.3-.4-1-1.2-1.8-2.5-2.4-1.3-.6-3.4-.9-6.2-.9v-4.3h53l.8 16.6h-4.3c-1-3.7-2.1-6.3-3.4-7.9-1.3-1.6-2.7-2.6-4.3-2.9-1.6-.4-4-.5-7.1-.5H25v22.6h6.5c2.2 0 3.9-.2 5-.6 1.1-.4 1.9-1.1 2.3-2.2.4-1.1.7-2.8.9-5.2h4.5v21.2h-4.3c-.1-2.4-.4-4.1-.9-5.2-.5-1.1-1.3-1.9-2.4-2.2-1.1-.4-2.7-.6-5-.6H25v15c0 2.5.1 4.3.2 5.5.1 1.2.5 2.1 1 2.9.5.8 1.4 1.3 2.7 1.7 1.2.3 3 .5 5.3.5h5.1c2.2 0 4.2-.3 6.2-.8s3.9-2 5.8-4.2c1.9-2.3 3.2-5.8 4-10.7h4.4zm63.1-.3l-.4 21.3H65.5v-4.3c3.9 0 6.5-.6 7.6-1.7 1.1-1.1 1.7-3.1 1.7-5.8v-40.1c0-1.9-.2-3.3-.6-4.3-.4-1-1.2-1.8-2.6-2.4-1.4-.6-3.4-.8-6.1-.8v-4.3h32.1v4.3c-2.7 0-4.7.3-6.1.8-1.4.5-2.3 1.3-2.7 2.3-.4 1-.6 2.5-.6 4.4V246c0 2.9.1 5 .4 6.2.3 1.3 1.1 2.2 2.3 2.8 1.3.6 3.3 1 6.2 1 3.6 0 6.8-.3 9.5-.8s5.2-2 7.5-4.4 3.7-6 4.3-10.9h4.4zm92.1 20.6h-4.4c-.7-2.7-1.7-5.1-3.2-7.3-2.4 2.5-5.1 4.6-8.2 6.4-3.1 1.8-7.2 2.7-12.5 2.7-5.7 0-11.1-1.4-16-4.2-4.9-2.8-8.8-6.7-11.7-11.7-2.9-5-4.4-10.6-4.4-16.9 0-4.5.8-8.7 2.4-12.8 1.6-4 3.8-7.6 6.8-10.7 2.9-3.1 6.4-5.5 10.5-7.3 4.1-1.8 8.5-2.6 13.3-2.6 8 0 14.6 2.6 19.8 7.8.7-1.3 1.4-3.3 2-5.9h4.2l.8 23.5h-4.5c-.8-4-2.3-7.5-4.4-10.6-2.1-3.1-4.7-5.5-7.6-7.1s-6-2.5-9.2-2.5c-3.6 0-6.8 1-9.7 2.9-2.9 2-5.1 5-6.7 9-1.6 4-2.4 9-2.4 15 0 5.8.7 10.7 2 14.6 1.3 3.9 3 6.8 5 8.8 2 2 4 3.3 6 4 2 .7 3.9 1.1 5.7 1.1 3.9 0 7.3-1 10.4-3.1 3.1-2.1 5.6-4.7 7.6-7.8s3.3-6.3 4-9.4h4.5v24.1zm83 .7h-31.4v-4.3c2.6 0 4.5-.3 5.8-.8 1.3-.6 2.2-1.4 2.5-2.4.4-1.1.6-2.5.6-4.2v-19.2h-29.6v19.2c0 2.6.5 4.6 1.6 5.7 1.1 1.2 3.6 1.8 7.5 1.8v4.3h-31.6V257c2.5 0 4.5-.3 5.8-.8 1.3-.6 2.2-1.4 2.6-2.4.4-1.1.6-2.5.6-4.3v-40.1c0-1.8-.2-3.2-.6-4.2-.4-1-1.2-1.8-2.5-2.4-1.3-.6-3.3-.9-5.9-.9v-4.3h31.6v4.3c-3.9 0-6.4.6-7.5 1.7-1.1 1.2-1.7 3.1-1.7 5.8v15.7h29.6v-15.7c0-1.8-.2-3.2-.5-4.2s-1.2-1.8-2.4-2.4c-1.3-.6-3.3-.9-6-.9v-4.3h31.4v4.3c-2.7 0-4.6.3-5.9.9-1.3.6-2.1 1.4-2.5 2.4-.4 1-.5 2.4-.5 4.2v40.1c0 1.7.2 3.1.5 4.1.3 1 1.2 1.8 2.5 2.5s3.3.9 6 .9v4.2zm68 0h-30.1v-4.3c2.5 0 4.4-.2 5.6-.5 1.2-.4 1.7-1.2 1.7-2.6 0-.9-.2-1.9-.6-2.9l-3-7.5h-20.7l-1.6 4.1c-.9 2.3-1.3 4-1.3 5 0 1.9.7 3.1 2.2 3.6 1.5.5 3.2.8 5.1.8v4.3h-22v-4.3c1.8 0 3.2-.3 4.5-1 1.2-.7 2.4-1.9 3.5-3.7 1.1-1.8 2.3-4.4 3.6-7.8l18.4-48.2h4.5l19.4 49.7c1.4 3.5 2.4 5.9 3.1 7.1s1.6 2.2 2.7 2.9c1.2.7 2.8 1 4.9 1v4.3zm-28.1-22.5l-8.8-22.3-8.4 22.3h17.2zm100.3 22.5H421c-.6-.7-1.4-1.7-2.3-3s-1.9-2.9-3-4.6c-1.1-1.8-2-3.2-2.7-4.4l-4.3-7.2c-1.9-3.2-3.4-5.4-4.4-6.6-1-1.2-2.1-1.9-3.4-2.3s-3.4-.5-6.5-.5H392v16.7c0 1.8.2 3.2.6 4.2.4 1.1 1.3 1.9 2.7 2.4 1.4.6 3.4.8 6.1.8v4.3h-32v-4.3c3.9 0 6.4-.6 7.5-1.7 1.1-1.1 1.7-3.1 1.7-5.8V209c0-2.7-.5-4.7-1.6-5.8-1.1-1.1-3.6-1.7-7.6-1.7v-4.4l14.8-.5c1.1-.1 2.4-.1 3.9-.1h4.1c1 0 2.6 0 4.8.1 3.2.1 6.1.3 8.9.6 2.8.3 4.9.6 6.5 1.1 2.4.6 4.6 1.6 6.7 3 2.1 1.4 3.8 3.2 5.2 5.5 1.3 2.3 2 4.9 2 7.9 0 2.1-.5 4.2-1.4 6.2-.9 2-2.4 3.8-4.5 5.4-2.1 1.6-4.8 2.8-8.1 3.7 2.3 1.3 4.2 3 5.8 5 1.6 2 4.1 5.7 7.5 11 2 3 3.6 5.3 4.9 6.9s2.5 2.6 3.6 3.2c1.1.5 2.5.9 4.1 1.1v4zm-26.4-46.8c0-5.1-1.5-8.5-4.6-10.1-3.1-1.7-7.1-2.5-12.1-2.5h-2.9v25.7h3c4.7 0 8.7-.8 11.9-2.3 3-1.6 4.7-5.2 4.7-10.8zm97.8 46.8h-17.1c-.6-.7-1.4-1.7-2.3-3s-1.9-2.9-3-4.6c-1.1-1.8-2-3.2-2.7-4.4L480 242c-1.9-3.2-3.4-5.4-4.4-6.6-1-1.2-2.1-1.9-3.4-2.3s-3.4-.5-6.5-.5h-2.4v16.7c0 1.8.2 3.2.6 4.2.4 1.1 1.3 1.9 2.7 2.4 1.4.6 3.4.8 6.1.8v4.3h-32v-4.3c3.9 0 6.4-.6 7.5-1.7 1.1-1.1 1.7-3.1 1.7-5.8V209c0-2.7-.5-4.7-1.6-5.8-1.1-1.1-3.6-1.7-7.6-1.7v-4.4l14.8-.5c1.1-.1 2.4-.1 3.9-.1h4.1c1 0 2.6 0 4.8.1 3.2.1 6.1.3 8.9.6 2.8.3 4.9.6 6.5 1.1 2.4.6 4.6 1.6 6.7 3 2.1 1.4 3.8 3.2 5.2 5.5 1.3 2.3 2 4.9 2 7.9 0 2.1-.5 4.2-1.4 6.2-.9 2-2.4 3.8-4.5 5.4-2.1 1.6-4.8 2.8-8.1 3.7 2.3 1.3 4.2 3 5.8 5 1.6 2 4.1 5.7 7.5 11 2 3 3.6 5.3 4.9 6.9s2.5 2.6 3.6 3.2c1.1.5 2.5.9 4.1 1.1v4zM483 214.4c0-5.1-1.5-8.5-4.6-10.1-3.1-1.7-7.1-2.5-12.1-2.5h-2.9v25.7h3c4.7 0 8.7-.8 11.9-2.3 3.1-1.6 4.7-5.2 4.7-10.8zm97.9 14.9c0 5.8-1.4 11.2-4.1 16.3-2.8 5.1-6.9 9.1-12.3 12.2-5.4 3.1-11.8 4.6-19.2 4.6-6 0-11.3-1-15.9-2.9s-8.3-4.6-11.2-7.8c-2.9-3.3-5.1-6.8-6.5-10.7-1.4-3.9-2.1-7.8-2.1-11.7 0-5.7 1.3-11 4-16.1 2.7-5.1 6.7-9.1 12.1-12.2 5.4-3.1 11.8-4.6 19.3-4.6 6.8 0 12.6 1.1 17.4 3.3 4.8 2.2 8.5 5 11.2 8.4s4.6 6.9 5.7 10.7c1 3.6 1.6 7.1 1.6 10.5zm-15.3-.2c0-3.6-.3-7-.9-10.2-.6-3.2-1.7-6.1-3.2-8.7-1.5-2.6-3.6-4.6-6.3-6.2-2.7-1.5-6-2.3-9.9-2.3-5.4 0-9.6 1.3-12.6 4s-5.1 6-6.2 10.1c-1.1 4-1.6 8.4-1.6 13.2 0 2.6.2 5.4.5 8.2.3 2.9 1.2 5.8 2.5 8.8s3.4 5.5 6.3 7.6 6.6 3.1 11.2 3.1 8.2-1.1 11.1-3.2c2.8-2.1 4.9-4.7 6.2-7.8s2.1-6 2.4-8.8c.4-2.6.5-5.3.5-7.8z"/></g></g><g><g enable-background="new" fill="#fff"><path d="M4.2 316.7v-32.8h3.2v32.8H4.2zm31 0H32v-13.5c0-2.9-.4-5-1.2-6.2-.8-1.3-2.1-1.9-3.9-1.9-.9 0-1.9.2-2.8.5-.9.3-1.8.8-2.6 1.4-.8.6-1.5 1.3-2.1 2.2-.6.8-1.1 1.8-1.4 2.8v14.8h-3.1v-24.1h2.9v5.5c.5-.9 1.1-1.7 1.8-2.4s1.5-1.3 2.4-1.9c.9-.5 1.8-.9 2.8-1.2 1-.3 2-.4 3.1-.4 1.4 0 2.5.2 3.4.7.9.5 1.6 1.2 2.2 2.1.6.9 1 2 1.2 3.3.2 1.3.4 2.7.4 4.3v14zm4.9-12.1c0-1.7.3-3.3.9-4.8.6-1.5 1.4-2.8 2.5-4 1.1-1.1 2.3-2 3.8-2.7 1.5-.6 3.1-1 4.9-1 2.3 0 4.3.5 6 1.5 1.7 1 3 2.4 3.8 4.2l-3.1 1c-.7-1.2-1.6-2.2-2.8-2.9-1.2-.7-2.5-1-4-1-1.2 0-2.4.2-3.4.7s-2 1.2-2.8 2c-.8.8-1.4 1.9-1.9 3-.4 1.2-.7 2.5-.7 3.8 0 1.4.2 2.6.7 3.8.5 1.2 1.1 2.2 1.9 3.1.8.9 1.7 1.6 2.8 2.1s2.2.8 3.4.8c.8 0 1.5-.1 2.3-.3.8-.2 1.5-.5 2.1-.9.6-.4 1.2-.8 1.7-1.3s.8-1 1-1.6l3.1.9c-.3.9-.8 1.7-1.5 2.4-.6.7-1.4 1.4-2.3 1.9-.9.5-1.9 1-2.9 1.2-1.1.3-2.2.4-3.3.4-1.8 0-3.4-.3-4.9-1-1.5-.7-2.8-1.6-3.8-2.7-1.1-1.2-1.9-2.5-2.5-4-.7-1.3-1-2.9-1-4.6zm37.2 12.6c-1.8 0-3.4-.3-4.8-1-1.5-.7-2.7-1.6-3.8-2.7-1.1-1.1-1.9-2.5-2.5-4-.6-1.5-.9-3.1-.9-4.8 0-1.7.3-3.3.9-4.8.6-1.5 1.4-2.8 2.5-4s2.3-2.1 3.8-2.7c1.5-.7 3.1-1 4.8-1 1.7 0 3.3.3 4.8 1s2.7 1.6 3.8 2.7 1.9 2.5 2.5 4c.6 1.5.9 3.1.9 4.8 0 1.7-.3 3.3-.9 4.8-.6 1.5-1.4 2.8-2.5 4-1.1 1.1-2.3 2-3.8 2.7-1.5.6-3.1 1-4.8 1zm-8.8-12.4c0 1.4.2 2.6.7 3.8.4 1.2 1.1 2.2 1.9 3.1.8.9 1.7 1.6 2.8 2.1s2.2.7 3.4.7 2.3-.3 3.4-.8 2-1.2 2.8-2.1c.8-.9 1.4-1.9 1.9-3.1.5-1.2.7-2.4.7-3.8 0-1.3-.2-2.6-.7-3.8s-1.1-2.2-1.9-3.1c-.8-.9-1.7-1.6-2.8-2.1s-2.2-.8-3.4-.8c-1.2 0-2.3.3-3.4.8s-2 1.2-2.8 2.1c-.8.9-1.4 1.9-1.9 3.1-.5 1.2-.7 2.5-.7 3.9zm61.7 11.9h-3.1v-13.5c0-2.8-.4-4.9-1.3-6.2-.9-1.3-2.2-2-4-2-.9 0-1.8.2-2.6.5s-1.6.8-2.3 1.4c-.7.6-1.3 1.3-1.8 2.2-.5.8-.9 1.8-1.2 2.8v14.7h-3.1v-13.5c0-2.9-.4-5-1.3-6.2-.9-1.3-2.2-1.9-4-1.9-1.8 0-3.4.6-4.9 1.9-1.4 1.3-2.4 2.9-3.1 5v14.8h-3.1v-24.1h2.9v5.5c1-1.8 2.3-3.3 3.9-4.3s3.4-1.5 5.3-1.5c2 0 3.7.6 4.9 1.7 1.2 1.1 2 2.6 2.2 4.5 2.3-4.1 5.4-6.2 9.3-6.2 1.3 0 2.5.2 3.4.7.9.5 1.7 1.2 2.3 2.1.6.9 1 2 1.2 3.3.3 1.3.4 2.7.4 4.3v14zm17.1.5c-1.8 0-3.4-.3-4.9-1-1.5-.7-2.8-1.6-3.8-2.7-1.1-1.2-1.9-2.5-2.5-4-.6-1.5-.9-3.1-.9-4.9 0-1.7.3-3.3.9-4.8.6-1.5 1.4-2.8 2.5-3.9s2.4-2 3.8-2.7c1.5-.7 3.1-1 4.8-1s3.4.3 4.8 1c1.5.7 2.7 1.6 3.8 2.7 1 1.1 1.9 2.5 2.5 3.9.6 1.5.9 3.1.9 4.7v.7c0 .2 0 .4-.1.5h-20.6c.1 1.3.4 2.5.9 3.6s1.2 2 1.9 2.8c.8.8 1.7 1.4 2.7 1.9 1 .4 2.1.7 3.3.7.8 0 1.6-.1 2.4-.3.8-.2 1.5-.5 2.1-.9s1.2-.8 1.7-1.4c.5-.5.9-1.1 1.2-1.8l2.7.7c-.4.9-.9 1.7-1.6 2.4-.7.7-1.5 1.4-2.4 1.9-.9.5-1.9 1-3 1.2-.9.5-2 .7-3.1.7zm8.9-13.8c-.1-1.3-.4-2.5-.9-3.5-.5-1.1-1.2-2-1.9-2.8-.8-.8-1.7-1.4-2.8-1.8-1-.4-2.2-.6-3.3-.6-1.2 0-2.3.2-3.3.6-1 .4-2 1-2.8 1.8-.8.8-1.4 1.7-1.9 2.8-.5 1.1-.8 2.3-.9 3.5h17.8zm42.4-16.7h-11.7v30h-3.2v-30H172v-2.9h26.6v2.9zm6.1 30.5c-1.2 0-2.4-.2-3.4-.6-1-.4-1.9-.9-2.6-1.6-.7-.7-1.3-1.5-1.7-2.4-.4-.9-.6-1.8-.6-2.8 0-1.1.2-2.1.7-3 .5-.9 1.2-1.7 2.1-2.3.9-.6 2-1.1 3.2-1.5s2.6-.5 4.1-.5c1.2 0 2.4.1 3.7.3 1.3.2 2.4.5 3.4.9v-2.2c0-2.1-.6-3.8-1.8-5.1s-2.9-1.9-4.9-1.9c-1.3 0-2.6.2-3.9.7-1.3.5-2.6 1.2-3.9 2.1l-1.1-2.1c1.6-1 3.1-1.8 4.6-2.4 1.5-.5 3-.8 4.6-.8 2.9 0 5.3.8 7 2.5 1.7 1.7 2.6 4 2.6 7v10.9c0 .9.4 1.3 1.1 1.3v2.8c-.2 0-.5.1-.7.1h-.6c-.6 0-1.2-.2-1.7-.6-.5-.4-.8-.9-.9-1.7l-.1-1.9c-1 1.4-2.4 2.5-4.1 3.3-1.6 1.1-3.4 1.5-5.1 1.5zm.8-2.4c1.4 0 2.8-.3 4.1-.9 1.4-.6 2.5-1.4 3.3-2.5l.6-.9c.2-.3.2-.6.2-.9v-3.9c-1-.4-2.1-.7-3.3-.9-1.1-.2-2.3-.3-3.3-.3-2.3 0-4.1.5-5.5 1.4-1.4.9-2.1 2.2-2.1 3.8 0 .6.1 1.3.4 1.9.2.6.6 1.2 1.1 1.7.5.5 1.1.9 1.9 1.2.7.1 1.6.3 2.6.3zm18.8-22.2l7.2 9.4.4.7.4-.7 7.2-9.4h3.4l-9.2 12.1 9.2 12h-3.4l-7.2-9.4-.4-.6-.4.6-7.2 9.4h-3.4l9.2-12-9.2-12.1h3.4zm54.4-2.6c-.9-1-2.2-1.9-3.7-2.5-1.6-.6-3.3-1-5.2-1-2.9 0-5.1.5-6.4 1.6-1.3 1.1-2 2.6-2 4.5 0 1 .2 1.8.5 2.4.4.6.9 1.2 1.7 1.6.8.5 1.7.9 2.9 1.2 1.2.3 2.5.7 4.1 1 1.8.4 3.3.8 4.7 1.2 1.4.4 2.6 1 3.6 1.7s1.7 1.5 2.3 2.5c.5 1 .8 2.2.8 3.7s-.3 2.8-.9 3.9c-.6 1.1-1.4 2-2.5 2.8-1 .7-2.3 1.3-3.7 1.6-1.4.4-3 .5-4.7.5-5.2 0-9.5-1.6-13.2-4.8l1.6-2.6c1.2 1.3 2.8 2.3 4.9 3.2 2 .9 4.3 1.3 6.8 1.3 2.6 0 4.7-.5 6.2-1.4 1.5-.9 2.2-2.4 2.2-4.3 0-1-.2-1.9-.6-2.6-.4-.7-1-1.3-1.9-1.8s-1.9-.9-3.1-1.3c-1.2-.4-2.7-.7-4.3-1.1-1.7-.4-3.2-.8-4.5-1.2-1.3-.4-2.4-1-3.3-1.6s-1.5-1.4-2-2.3c-.4-.9-.7-2-.7-3.4 0-1.5.3-2.9.9-4 .6-1.2 1.4-2.2 2.4-3 1-.8 2.3-1.4 3.7-1.8s3-.6 4.7-.6c2.2 0 4.1.3 5.8 1s3.3 1.6 4.6 2.8l-1.7 2.8zm18.8 27.2c-1.8 0-3.4-.3-4.9-1-1.5-.7-2.8-1.6-3.8-2.7-1.1-1.2-1.9-2.5-2.5-4-.6-1.5-.9-3.1-.9-4.9 0-1.7.3-3.3.9-4.8.6-1.5 1.4-2.8 2.5-3.9s2.4-2 3.8-2.7c1.5-.7 3.1-1 4.8-1s3.4.3 4.8 1c1.5.7 2.7 1.6 3.8 2.7 1 1.1 1.9 2.5 2.5 3.9.6 1.5.9 3.1.9 4.7v.7c0 .2 0 .4-.1.5h-20.6c.1 1.3.4 2.5.9 3.6s1.2 2 1.9 2.8c.8.8 1.7 1.4 2.7 1.9 1 .4 2.1.7 3.3.7.8 0 1.6-.1 2.4-.3.8-.2 1.5-.5 2.1-.9.6-.4 1.2-.8 1.7-1.4.5-.5.9-1.1 1.2-1.8l2.7.7c-.4.9-.9 1.7-1.6 2.4-.7.7-1.5 1.4-2.4 1.9-.9.5-1.9 1-3 1.2-.9.5-2 .7-3.1.7zm8.9-13.8c-.1-1.3-.4-2.5-.9-3.5-.5-1.1-1.2-2-1.9-2.8-.8-.8-1.7-1.4-2.8-1.8-1-.4-2.2-.6-3.3-.6-1.2 0-2.3.2-3.3.6-1 .4-2 1-2.8 1.8-.8.8-1.4 1.7-1.9 2.8-.5 1.1-.8 2.3-.9 3.5h17.8zm19.7-8c-2.1.1-4 .6-5.6 1.8-1.6 1.1-2.7 2.6-3.3 4.6v15h-3.1v-24.1h3v5.8c.8-1.7 1.9-3.1 3.3-4.2s2.8-1.7 4.4-1.7h1.4v2.8zm11.4 21.3l-9.8-24.1h3.3l8.3 21.2 8.3-21.2h3.1l-9.8 24.1h-3.4zm17.3-29.1V283h3.1v4.6h-3.1zm0 29.1v-24.1h3.1v24.1h-3.1zm8.4-12.1c0-1.7.3-3.3.9-4.8.6-1.5 1.4-2.8 2.5-4 1.1-1.1 2.3-2 3.8-2.7 1.5-.6 3.1-1 4.9-1 2.3 0 4.3.5 6 1.5 1.7 1 3 2.4 3.8 4.2l-3.1 1c-.7-1.2-1.6-2.2-2.8-2.9-1.2-.7-2.5-1-4-1-1.2 0-2.4.2-3.4.7-1.1.5-2 1.2-2.8 2-.8.8-1.4 1.9-1.9 3-.4 1.2-.7 2.5-.7 3.8 0 1.4.2 2.6.7 3.8.5 1.2 1.1 2.2 1.9 3.1.8.9 1.7 1.6 2.8 2.1 1.1.5 2.2.8 3.4.8.8 0 1.5-.1 2.3-.3.8-.2 1.5-.5 2.1-.9.6-.4 1.2-.8 1.7-1.3s.8-1 1-1.6l3.1.9c-.3.9-.8 1.7-1.5 2.4s-1.4 1.4-2.3 1.9c-.9.5-1.9 1-2.9 1.2-1.1.3-2.2.4-3.3.4-1.8 0-3.4-.3-4.9-1-1.5-.7-2.8-1.6-3.8-2.7-1.1-1.2-1.9-2.5-2.5-4-.7-1.3-1-2.9-1-4.6zm37.5 12.6c-1.8 0-3.4-.3-4.9-1-1.5-.7-2.8-1.6-3.8-2.7-1.1-1.2-1.9-2.5-2.5-4-.6-1.5-.9-3.1-.9-4.9 0-1.7.3-3.3.9-4.8s1.4-2.8 2.5-3.9 2.4-2 3.8-2.7c1.5-.7 3.1-1 4.8-1s3.4.3 4.8 1c1.5.7 2.7 1.6 3.8 2.7 1 1.1 1.9 2.5 2.5 3.9.6 1.5.9 3.1.9 4.7v.7c0 .2 0 .4-.1.5h-20.6c.1 1.3.4 2.5.9 3.6s1.2 2 1.9 2.8c.8.8 1.7 1.4 2.7 1.9 1 .4 2.1.7 3.3.7.8 0 1.6-.1 2.4-.3s1.5-.5 2.1-.9c.6-.4 1.2-.8 1.7-1.4.5-.5.9-1.1 1.2-1.8l2.7.7c-.4.9-.9 1.7-1.6 2.4-.7.7-1.5 1.4-2.4 1.9-.9.5-1.9 1-3 1.2-.8.5-1.9.7-3.1.7zm8.9-13.8c-.1-1.3-.4-2.5-.9-3.5-.5-1.1-1.2-2-1.9-2.8-.8-.8-1.7-1.4-2.8-1.8-1-.4-2.2-.6-3.3-.6-1.2 0-2.3.2-3.3.6-1 .4-2 1-2.8 1.8-.8.8-1.4 1.7-1.9 2.8-.5 1.1-.8 2.3-.9 3.5h17.8zm15.8 13.8c-1.9 0-3.7-.3-5.5-.9-1.8-.6-3.3-1.5-4.6-2.7l1.4-2.1c1.4 1.1 2.7 1.9 4.1 2.5 1.4.6 2.9.8 4.5.8 1.9 0 3.5-.4 4.6-1.2 1.2-.8 1.7-1.9 1.7-3.4 0-.7-.2-1.2-.5-1.7-.3-.4-.8-.8-1.4-1.2-.6-.3-1.4-.6-2.3-.9-.9-.3-2-.5-3.2-.8-1.4-.3-2.6-.7-3.6-1-1-.3-1.9-.7-2.5-1.2-.7-.4-1.2-1-1.5-1.6-.3-.6-.5-1.4-.5-2.4 0-1.2.2-2.3.7-3.2.5-.9 1.1-1.7 1.9-2.3s1.8-1.1 2.9-1.4c1.1-.3 2.3-.5 3.5-.5 1.9 0 3.5.3 5 .9 1.5.6 2.7 1.4 3.7 2.4l-1.5 1.9c-.9-.9-2-1.6-3.3-2.1-1.3-.5-2.6-.7-4-.7-.8 0-1.6.1-2.3.3-.7.2-1.3.4-1.9.8-.5.4-1 .8-1.3 1.4-.3.6-.5 1.2-.5 2 0 .6.1 1.2.3 1.6.2.4.6.7 1.1 1 .5.3 1.1.6 1.9.8.8.2 1.7.5 2.8.7 1.5.4 2.9.7 4.1 1.1 1.2.4 2.2.8 2.9 1.3.8.5 1.4 1.1 1.8 1.8.4.7.6 1.6.6 2.6 0 2.2-.8 4-2.5 5.3-1.4 1.4-3.7 2.1-6.6 2.1z"/></g></g></g><g transform="translate(1055)"><path d="M37.8 50.3L17.4 29.9v74.7h74.7L72 84.5c87.6-81.9 209.7-37 234 76.8C308.2 1 130.4-41.7 37.8 50.3zm247.8 222.1l20.4 20.4v-74.7h-74.7l20.1 20.1c-87.6 81.9-209.7 37-234-76.8-2.2 160.3 175.6 203 268.2 111z"/><g><path d="M150.8 250.6v-19.7c-13.9-.6-27.4-4.4-35.2-8.9l6.2-24.3c8.7 4.8 20.9 9.1 34.4 9.1 11.8 0 19.9-4.6 19.9-12.9 0-7.9-6.6-12.9-22-18-22.2-7.5-37.3-17.8-37.3-37.9 0-18.2 12.9-32.5 35-36.9V81.4h20.3v18.2c13.9.6 23.2 3.5 30.1 6.8l-6 23.4c-5.4-2.3-14.9-7-29.8-7-13.5 0-17.8 5.8-17.8 11.6 0 6.8 7.3 11.2 24.9 17.8 24.7 8.7 34.6 20.1 34.6 38.8 0 18.4-13.1 34.2-36.9 38.3v21.1h-20.4z"/></g></g><g transform="translate(1379)"><path d="M286.6 126.8s7.6-20.3-7.2-31.7c-15.4-11.9-24.9 8-24.9 8 14.3-7.7 17.8 1.4 18.8 3.4 1.2 2.5 3.4 12.1-5.4 14.2-4.8 1.2-8.4.2-11-1.8-.9-.7-1.7-1.6-2.7-2.4-38.8-35.6-101.2-40-145.9-14.2-1.4.8-2.1 2.5-1.7 4.1 3.7 13.2-1.7 26.4-13.4 33.4-.8.5-1.7.7-3.1 1.2.5-1 .7-1.3.9-1.6 14.2-16.3 3.8-40.6-12.1-47.3-9.7-4.1-38.3-5.3-40.3-1.1-2 4.3 1.3 7 3.5 9.9 8 10.9 16.1 21.7 24.6 33.1-5.3 5.9-10.2 12.1-15.7 17.6-7.8 7.7-17 12.6-28.5 12.6-7 0-10.4 4.3-9.9 11.5.6 8.3 1.4 16.7 2.5 25 1.4 10.7 6.3 15.3 17.1 16.5 8.3 1 16.3 3.1 23.2 7.6 7.8 5.2 11.2 8.4 18.7 14 2.4 1.8 4.8 6.6 3.9 11.1-1.5 7-2.7 13.8-4.3 20.8-3.2 13.7.8 19.3 14.6 22.2 7.3 1.5 21.1 3 28.5 3.6 12.8 1.1 17.4-3.6 20.3-16.1.7-3 1.8-7.7 2.6-11 22.4 5.3 44.5 5 66.7-.6.7 3.3 2.7 10.5 3.2 13.2 3.5 17.3 13 16.6 27.1 14.3 5.6-.9 14.8-2.1 20.4-2.6 16.1-1.5 19.5-7.1 16.1-21.7-2.4-10.1-1-4.1-3.8-14.4-1.1-4.2.2-9.5 2.9-12.4 30.8-34.2 18.1-72.2 10-89.8-2.3-6.5-2-9.8 1-18.6 3.6-10.8 3.1-9.4 3.3-10zM69.9 188.6c-6.8.1-13-6.1-12.9-13 .1-6.8 5.9-12.4 12.7-12.5 7-.1 12.6 5.3 12.7 12.3.1 7.2-5.5 13.2-12.5 13.2zm103-116.4c16.4 0 32 2.5 46.1 7 5.4-7.9 8.6-17.3 8.6-27.3 0-28-24.5-50.8-54.7-50.8-30.2 0-54.7 22.7-54.7 50.8 0 10.1 3.2 19.4 8.6 27.3 14.2-4.5 29.7-7 46.1-7z"/></g><g transform="translate(1679)"><g><g><path fill="#2A94D2" d="M320.5 199.2v-16.9c15.8-9.2 26.7-28.3 26.7-50.4 0-31-21.4-56.2-47.9-56.2-26.4 0-47.9 25.2-47.9 56.2 0 22.1 10.9 41.2 26.7 50.4v16.9c-15.3 0-40.1 12.5-40.1 27.8v29h122.4v-28.9c.2-15.3-24.6-27.9-39.9-27.9z"/></g></g><g><g><path fill="#2A94D2" d="M87.5 199.2v-16.9c15.8-9.2 26.7-28.3 26.7-50.4 0-31-21.4-56.2-47.9-56.2s-47.9 25.2-47.9 56.2c0 22.1 10.9 41.2 26.7 50.4v16.9C29.8 199.2 5 211.7 5 227v29h122.4v-28.9c.1-15.3-24.6-27.9-39.9-27.9z"/></g><g fill="#2A94D2"><path d="M190.1 304.7l-7.2-14.7-7.3 14.7-16.3 2.3 11.8 11.5-2.8 16.2 14.6-7.6 14.5 7.6-2.8-16.2 11.8-11.5zm170.5 2.3l-16.2-2.3-7.3-14.7-7.3 14.7-16.2 2.3 11.7 11.5-2.7 16.2 14.5-7.6 14.5 7.6-2.8-16.2zm-93.4-2.3L260 290l-7.3 14.7-16.2 2.3 11.7 11.5-2.8 16.2 14.6-7.6 14.5 7.6-2.8-16.2 11.8-11.5zm-154.2 0l-7.2-14.7-7.3 14.7-16.3 2.3L94 318.5l-2.8 16.2 14.6-7.6 14.5 7.6-2.8-16.2 11.8-11.5zm-77.1 0L28.6 290l-7.2 14.7L5.1 307l11.8 11.5-2.8 16.2 14.5-7.6 14.6 7.6-2.8-16.2L52.2 307z"/></g></g><g><g><path fill="#2A94D2" d="M107 261v-38.5c0-9.8 6.7-19.4 18.9-27 8.5-5.3 18.6-8.9 27.5-9.9v-12.1c-19.1-12.4-30.9-35.5-30.9-61.1 0-38.6 27.1-70 60.4-70s60.4 31.4 60.4 70c0 25.6-11.8 48.8-30.9 61.1v12c20 2.3 46.4 17.4 46.4 36.9V261H107z"/><path fill="#fff" d="M182.8 47.4c30.6 0 55.4 29.1 55.4 65 0 25.6-12.6 47.7-30.9 58.3v19.5c17.7 0 46.4 14.5 46.4 32.2V256H112v-33.5c0-17.7 28.7-32.2 46.4-32.2v-19.5c-18.3-10.6-30.9-32.7-30.9-58.3 0-36 24.7-65.1 55.3-65.1m0-10c-17.8 0-34.4 8-46.8 22.6-12 14.1-18.6 32.7-18.6 52.5 0 26.3 11.7 50.2 30.9 63.8v5.1c-8.4 1.6-17.4 5.1-25.1 9.9-13.7 8.5-21.3 19.6-21.3 31.2V266h161.6v-43.5c0-11.6-7.5-22.7-21.3-31.2-7.7-4.8-16.7-8.3-25.1-9.9v-5.1c19.2-13.6 30.9-37.5 30.9-63.8 0-19.7-6.6-38.4-18.6-52.5-12.2-14.6-28.8-22.6-46.6-22.6z"/></g></g></g><g transform="translate(2046)"><path d="M375.3 182s2.3 16.3-4.7 25.3 1 13.3 1 13.3 26 4.7 24.3 27.7S380 272 380 272s-13 8.3-2 14.7c11 6.3 16.3 13.7 16.3 24.7s-3.3 16.7-19 26.3c0 0-13.3 5.3-5 17s8 23.7-5.3 33-32 17.8-60.3 22c-28.3 4.2-103.3 3.7-116.7 1.3s-59-4.3-90.3-19.3-42.3-17-48.3-17-26.4-1.4-26.4-1.4v-148S47.7 227 57.7 209s25-40.3 29-43.7c4-3.3 21.3-21.3 26.7-27.7 5.3-6.3 32.7-40 37-47 4.3-7 19.3-28 23-40.6 0 0 7.7-16.4 9.7-28 0 0 3-24 23-21.2 0 0 45.3 8.5 29.7 63.5 0 0-9 30.7-24.7 60 0 0-9.3 30.2 2.3 39.3 12.3 9.7 14 6.3 24 6.7 10 .3 57.3-6.3 67-8.3 9.6-2 67.9-11.7 70.9 20z"/></g><g transform="translate(2460)"><g><g><path d="M238.2 0H50C22.4 0 0 22.4 0 50v201.1c0 27.6 22.4 50 50 50h188.2c27.6 0 50-22.4 50-50V50c0-27.6-22.4-50-50-50zM261 243.6c0 16.1-13 29.1-29.1 29.1H56.2c-16.1 0-29.1-13-29.1-29.1V57.5c0-16.1 13-29.1 29.1-29.1H221c22.1 0 40 17.9 40 40v175.2z"/><g><path d="M171.4 83.7v-21h-47.7v21H58v39.8h179.1V83.7z"/><path fill="none" stroke="#000" stroke-width="30" stroke-miterlimit="10" d="M58.3 226.5c73.3 0 132.6-59.3 132.6-132.6m-85.7 56.6c31.3 66.3 110.3 94.6 176.5 63.3"/></g></g></g><g><g><path d="M340.9 357.3h32.5l-15.9-51.5zm110.6-158.4H263.4c-27.6 0-50 22.4-50 50V450c0 27.6 22.4 50 50 50h188.2c27.6 0 50-22.4 50-50V248.9c-.1-27.6-22.4-50-50.1-50zm-61.9 211.4l-10.7-31h-43.1l-10.5 31h-33.9l53.2-138.5h25.9l53 138.5h-33.9z"/></g></g></g><g transform="translate(2961)"><path d="M102.2 470.3c-9.9 0-18-8.1-18-18s8.1-18 18-18h388.2V180.4c0-8.2-6.8-15-15-15h-430c-19.2 0-35 15.8-35 35v270c0 19.2 15.8 35 35 35h430c8.2 0 15-6.8 15-15v-20.1H102.2zm329.5-338.9L341.6 1 152.9 131.4z"/></g></svg>