<?xml version="1.0" encoding="utf-8"?>
<!-- Generator: Adobe Illustrator 18.0.0, SVG Export Plug-In . SVG Version: 6.00 Build 0)  -->
<!DOCTYPE svg PUBLIC "-//W3C//DTD SVG 1.1//EN" "http://www.w3.org/Graphics/SVG/1.1/DTD/svg11.dtd">
<svg version="1.1" id="Layer_1" xmlns="http://www.w3.org/2000/svg" xmlns:xlink="http://www.w3.org/1999/xlink" x="0px" y="0px"
	 viewBox="0 0 453 453" enable-background="new 0 0 453 453" xml:space="preserve">
<path d="M360,0.8H90c-13.8,0-25,11.2-25,25V428c0,13.8,11.2,25,25,25h270c13.8,0,25-11.2,25-25V25.8C385,12,373.8,0.8,360,0.8z
	 M160,390.8c0,16.6-13.4,30-30,30h0c-16.6,0-30-13.4-30-30v0c0-16.6,13.4-30,30-30h0C146.6,360.8,160,374.2,160,390.8L160,390.8z
	 M160,295.8c0,16.6-13.4,30-30,30h0c-16.6,0-30-13.4-30-30v0c0-16.6,13.4-30,30-30h0C146.6,265.8,160,279.2,160,295.8L160,295.8z
	 M160,200.8c0,16.6-13.4,30-30,30h0c-16.6,0-30-13.4-30-30v0c0-16.6,13.4-30,30-30h0C146.6,170.8,160,184.2,160,200.8L160,200.8z
	 M255,390.8c0,16.6-13.4,30-30,30h0c-16.6,0-30-13.4-30-30v0c0-16.6,13.4-30,30-30h0C241.5,360.8,255,374.2,255,390.8L255,390.8z
	 M255,295.8c0,16.6-13.4,30-30,30h0c-16.6,0-30-13.4-30-30v0c0-16.6,13.4-30,30-30h0C241.5,265.8,255,279.2,255,295.8L255,295.8z
	 M255,200.8c0,16.6-13.4,30-30,30h0c-16.6,0-30-13.4-30-30v0c0-16.6,13.4-30,30-30h0C241.5,170.8,255,184.2,255,200.8L255,200.8z
	 M349.9,390.8c0,16.6-13.4,30-30,30h0c-16.6,0-30-13.4-30-30v-95c0-16.6,13.4-30,30-30h0c16.6,0,30,13.4,30,30V390.8z M349.9,200.8
	c0,16.6-13.4,30-30,30h0c-16.6,0-30-13.4-30-30v0c0-16.6,13.4-30,30-30h0C336.5,170.8,349.9,184.2,349.9,200.8L349.9,200.8z
	 M350,106.1c0,16.6-13.4,30-30,30H130c-16.6,0-30-13.4-30-30V66.9c0-16.6,13.4-30,30-30h190c16.6,0,30,13.4,30,30V106.1z"/>
</svg>
