<?xml version="1.0" encoding="utf-8"?>
<!-- Generator: Adobe Illustrator 18.0.0, SVG Export Plug-In . SVG Version: 6.00 Build 0)  -->
<!DOCTYPE svg PUBLIC "-//W3C//DTD SVG 1.1//EN" "http://www.w3.org/Graphics/SVG/1.1/DTD/svg11.dtd">
<svg version="1.1" id="Layer_1" xmlns="http://www.w3.org/2000/svg" xmlns:xlink="http://www.w3.org/1999/xlink" x="0px" y="0px"
	 viewBox="0 0 400 400" enable-background="new 0 0 400 400" xml:space="preserve">
<path d="M198.8,1.1C89.6,1.1,1.1,89.6,1.1,198.8s88.5,197.6,197.6,197.6s197.6-88.5,197.6-197.6S307.9,1.1,198.8,1.1z M352.8,200
	c0,85-68.9,154-154,154s-154-68.9-154-154s68.9-154,154-154S352.8,115,352.8,200z"/>
<g>
	<path d="M196.5,234.6h-2.8c-9.4,0-17.1-7.7-17.1-17.1V100c0-9.4,7.7-17.1,17.1-17.1h2.8c9.4,0,17.1,7.7,17.1,17.1v117.4
		C213.5,226.9,205.9,234.6,196.5,234.6z"/>
	<path d="M176.5,217.5v-2.8c0-9.4,7.7-17.1,17.1-17.1H259c9.4,0,17.1,7.7,17.1,17.1v2.8c0,9.4-7.7,17.1-17.1,17.1h-65.3
		C184.2,234.6,176.5,226.9,176.5,217.5z"/>
</g>
</svg>
