<?xml version="1.0" encoding="utf-8"?>
<!-- Generator: Adobe Illustrator 18.0.0, SVG Export Plug-In . SVG Version: 6.00 Build 0)  -->
<!DOCTYPE svg PUBLIC "-//W3C//DTD SVG 1.1//EN" "http://www.w3.org/Graphics/SVG/1.1/DTD/svg11.dtd">
<svg version="1.1" id="Layer_1" xmlns="http://www.w3.org/2000/svg" xmlns:xlink="http://www.w3.org/1999/xlink" x="0px" y="0px"
	 viewBox="0 133 600 254" enable-background="new 0 133 600 254" xml:space="preserve">
<g id="Layer_4" display="none">
	<rect y="120" display="inline" fill="#2A94D2" width="603.9" height="265.9"/>
</g>
<g id="Layer_2">
	<g enable-background="new    ">
		<path fill="#FFFFFF" d="M59.7,240.2l-0.5,21H2.3v-4.3c3.9,0,6.5-0.6,7.6-1.7c1.1-1.1,1.7-3.1,1.7-5.8v-40.1c0-1.8-0.2-3.2-0.5-4.3
			c-0.4-1-1.2-1.8-2.5-2.4c-1.3-0.6-3.4-0.9-6.2-0.9v-4.3h53l0.8,16.6h-4.3c-1-3.7-2.1-6.3-3.4-7.9c-1.3-1.6-2.7-2.6-4.3-2.9
			c-1.6-0.4-4-0.5-7.1-0.5H25v22.6h6.5c2.2,0,3.9-0.2,5-0.6c1.1-0.4,1.9-1.1,2.3-2.2c0.4-1.1,0.7-2.8,0.9-5.2h4.5v21.2h-4.3
			c-0.1-2.4-0.4-4.1-0.9-5.2c-0.5-1.1-1.3-1.9-2.4-2.2c-1.1-0.4-2.7-0.6-5-0.6H25v15c0,2.5,0.1,4.3,0.2,5.5c0.1,1.2,0.5,2.1,1,2.9
			c0.5,0.8,1.4,1.3,2.7,1.7c1.2,0.3,3,0.5,5.3,0.5h5.1c2.2,0,4.2-0.3,6.2-0.8c2-0.5,3.9-2,5.8-4.2c1.9-2.3,3.2-5.8,4-10.7H59.7z"/>
		<path fill="#FFFFFF" d="M122.8,239.9l-0.4,21.3H65.5v-4.3c3.9,0,6.5-0.6,7.6-1.7c1.1-1.1,1.7-3.1,1.7-5.8v-40.1
			c0-1.9-0.2-3.3-0.6-4.3c-0.4-1-1.2-1.8-2.6-2.4c-1.4-0.6-3.4-0.8-6.1-0.8v-4.3h32.1v4.3c-2.7,0-4.7,0.3-6.1,0.8
			c-1.4,0.5-2.3,1.3-2.7,2.3c-0.4,1-0.6,2.5-0.6,4.4v36.7c0,2.9,0.1,5,0.4,6.2c0.3,1.3,1.1,2.2,2.3,2.8c1.3,0.6,3.3,1,6.2,1
			c3.6,0,6.8-0.3,9.5-0.8c2.7-0.5,5.2-2,7.5-4.4s3.7-6,4.3-10.9H122.8z"/>
		<path fill="#FFFFFF" d="M214.9,260.5h-4.4c-0.7-2.7-1.7-5.1-3.2-7.3c-2.4,2.5-5.1,4.6-8.2,6.4c-3.1,1.8-7.2,2.7-12.5,2.7
			c-5.7,0-11.1-1.4-16-4.2c-4.9-2.8-8.8-6.7-11.7-11.7c-2.9-5-4.4-10.6-4.4-16.9c0-4.5,0.8-8.7,2.4-12.8c1.6-4,3.8-7.6,6.8-10.7
			c2.9-3.1,6.4-5.5,10.5-7.3c4.1-1.8,8.5-2.6,13.3-2.6c8,0,14.6,2.6,19.8,7.8c0.7-1.3,1.4-3.3,2-5.9h4.2l0.8,23.5h-4.5
			c-0.8-4-2.3-7.5-4.4-10.6c-2.1-3.1-4.7-5.5-7.6-7.1s-6-2.5-9.2-2.5c-3.6,0-6.8,1-9.7,2.9c-2.9,2-5.1,5-6.7,9c-1.6,4-2.4,9-2.4,15
			c0,5.8,0.7,10.7,2,14.6c1.3,3.9,3,6.8,5,8.8c2,2,4,3.3,6,4c2,0.7,3.9,1.1,5.7,1.1c3.9,0,7.3-1,10.4-3.1c3.1-2.1,5.6-4.7,7.6-7.8
			s3.3-6.3,4-9.4h4.5V260.5z"/>
		<path fill="#FFFFFF" d="M297.9,261.2h-31.4v-4.3c2.6,0,4.5-0.3,5.8-0.8c1.3-0.6,2.2-1.4,2.5-2.4c0.4-1.1,0.6-2.5,0.6-4.2v-19.2
			h-29.6v19.2c0,2.6,0.5,4.6,1.6,5.7c1.1,1.2,3.6,1.8,7.5,1.8v4.3h-31.6v-4.3c2.5,0,4.5-0.3,5.8-0.8c1.3-0.6,2.2-1.4,2.6-2.4
			c0.4-1.1,0.6-2.5,0.6-4.3v-40.1c0-1.8-0.2-3.2-0.6-4.2c-0.4-1-1.2-1.8-2.5-2.4c-1.3-0.6-3.3-0.9-5.9-0.9v-4.3h31.6v4.3
			c-3.9,0-6.4,0.6-7.5,1.7c-1.1,1.2-1.7,3.1-1.7,5.8v15.7h29.6v-15.7c0-1.8-0.2-3.2-0.5-4.2c-0.3-1-1.2-1.8-2.4-2.4
			c-1.3-0.6-3.3-0.9-6-0.9v-4.3h31.4v4.3c-2.7,0-4.6,0.3-5.9,0.9c-1.3,0.6-2.1,1.4-2.5,2.4c-0.4,1-0.5,2.4-0.5,4.2v40.1
			c0,1.7,0.2,3.1,0.5,4.1c0.3,1,1.2,1.8,2.5,2.5s3.3,0.9,6,0.9V261.2z"/>
		<path fill="#FFFFFF" d="M365.9,261.2h-30.1v-4.3c2.5,0,4.4-0.2,5.6-0.5c1.2-0.4,1.7-1.2,1.7-2.6c0-0.9-0.2-1.9-0.6-2.9l-3-7.5
			h-20.7l-1.6,4.1c-0.9,2.3-1.3,4-1.3,5c0,1.9,0.7,3.1,2.2,3.6c1.5,0.5,3.2,0.8,5.1,0.8v4.3h-22v-4.3c1.8,0,3.2-0.3,4.5-1
			c1.2-0.7,2.4-1.9,3.5-3.7c1.1-1.8,2.3-4.4,3.6-7.8l18.4-48.2h4.5l19.4,49.7c1.4,3.5,2.4,5.9,3.1,7.1s1.6,2.2,2.7,2.9
			c1.2,0.7,2.8,1,4.9,1V261.2z M337.8,238.7l-8.8-22.3l-8.4,22.3H337.8z"/>
		<path fill="#FFFFFF" d="M438.1,261.2H421c-0.6-0.7-1.4-1.7-2.3-3s-1.9-2.9-3-4.6c-1.1-1.8-2-3.2-2.7-4.4l-4.3-7.2
			c-1.9-3.2-3.4-5.4-4.4-6.6c-1-1.2-2.1-1.9-3.4-2.3s-3.4-0.5-6.5-0.5h-2.4v16.7c0,1.8,0.2,3.2,0.6,4.2c0.4,1.1,1.3,1.9,2.7,2.4
			c1.4,0.6,3.4,0.8,6.1,0.8v4.3h-32v-4.3c3.9,0,6.4-0.6,7.5-1.7c1.1-1.1,1.7-3.1,1.7-5.8V209c0-2.7-0.5-4.7-1.6-5.8
			c-1.1-1.1-3.6-1.7-7.6-1.7v-4.4l14.8-0.5c1.1-0.1,2.4-0.1,3.9-0.1c1.5,0,2.8,0,4.1,0c1,0,2.6,0,4.8,0.1c3.2,0.1,6.1,0.3,8.9,0.6
			c2.8,0.3,4.9,0.6,6.5,1.1c2.4,0.6,4.6,1.6,6.7,3c2.1,1.4,3.8,3.2,5.2,5.5c1.3,2.3,2,4.9,2,7.9c0,2.1-0.5,4.2-1.4,6.2
			c-0.9,2-2.4,3.8-4.5,5.4c-2.1,1.6-4.8,2.8-8.1,3.7c2.3,1.3,4.2,3,5.8,5c1.6,2,4.1,5.7,7.5,11c2,3,3.6,5.3,4.9,6.9s2.5,2.6,3.6,3.2
			c1.1,0.5,2.5,0.9,4.1,1.1V261.2z M411.7,214.4c0-5.1-1.5-8.5-4.6-10.1c-3.1-1.7-7.1-2.5-12.1-2.5c-0.7,0-1.2,0-1.6,0
			c-0.4,0-0.8,0-1.3,0v25.7h3c4.7,0,8.7-0.8,11.9-2.3C410,223.6,411.7,220,411.7,214.4z"/>
		<path fill="#FFFFFF" d="M509.5,261.2h-17.1c-0.6-0.7-1.4-1.7-2.3-3s-1.9-2.9-3-4.6c-1.1-1.8-2-3.2-2.7-4.4L480,242
			c-1.9-3.2-3.4-5.4-4.4-6.6c-1-1.2-2.1-1.9-3.4-2.3s-3.4-0.5-6.5-0.5h-2.4v16.7c0,1.8,0.2,3.2,0.6,4.2c0.4,1.1,1.3,1.9,2.7,2.4
			c1.4,0.6,3.4,0.8,6.1,0.8v4.3h-32v-4.3c3.9,0,6.4-0.6,7.5-1.7c1.1-1.1,1.7-3.1,1.7-5.8V209c0-2.7-0.5-4.7-1.6-5.8
			c-1.1-1.1-3.6-1.7-7.6-1.7v-4.4l14.8-0.5c1.1-0.1,2.4-0.1,3.9-0.1c1.5,0,2.8,0,4.1,0c1,0,2.6,0,4.8,0.1c3.2,0.1,6.1,0.3,8.9,0.6
			c2.8,0.3,4.9,0.6,6.5,1.1c2.4,0.6,4.6,1.6,6.7,3c2.1,1.4,3.8,3.2,5.2,5.5c1.3,2.3,2,4.9,2,7.9c0,2.1-0.5,4.2-1.4,6.2
			c-0.9,2-2.4,3.8-4.5,5.4c-2.1,1.6-4.8,2.8-8.1,3.7c2.3,1.3,4.2,3,5.8,5c1.6,2,4.1,5.7,7.5,11c2,3,3.6,5.3,4.9,6.9s2.5,2.6,3.6,3.2
			c1.1,0.5,2.5,0.9,4.1,1.1V261.2z M483,214.4c0-5.1-1.5-8.5-4.6-10.1c-3.1-1.7-7.1-2.5-12.1-2.5c-0.7,0-1.2,0-1.6,0
			c-0.4,0-0.8,0-1.3,0v25.7h3c4.7,0,8.7-0.8,11.9-2.3C481.4,223.6,483,220,483,214.4z"/>
		<path fill="#FFFFFF" d="M580.9,229.3c0,5.8-1.4,11.2-4.1,16.3c-2.8,5.1-6.9,9.1-12.3,12.2c-5.4,3.1-11.8,4.6-19.2,4.6
			c-6,0-11.3-1-15.9-2.9c-4.6-1.9-8.3-4.6-11.2-7.8c-2.9-3.3-5.1-6.8-6.5-10.7c-1.4-3.9-2.1-7.8-2.1-11.7c0-5.7,1.3-11,4-16.1
			c2.7-5.1,6.7-9.1,12.1-12.2c5.4-3.1,11.8-4.6,19.3-4.6c6.8,0,12.6,1.1,17.4,3.3c4.8,2.2,8.5,5,11.2,8.4s4.6,6.9,5.7,10.7
			C580.3,222.4,580.9,225.9,580.9,229.3z M565.6,229.1c0-3.6-0.3-7-0.9-10.2c-0.6-3.2-1.7-6.1-3.2-8.7c-1.5-2.6-3.6-4.6-6.3-6.2
			c-2.7-1.5-6-2.3-9.9-2.3c-5.4,0-9.6,1.3-12.6,4c-3,2.7-5.1,6-6.2,10.1c-1.1,4-1.6,8.4-1.6,13.2c0,2.6,0.2,5.4,0.5,8.2
			c0.3,2.9,1.2,5.8,2.5,8.8s3.4,5.5,6.3,7.6s6.6,3.1,11.2,3.1c4.6,0,8.2-1.1,11.1-3.2c2.8-2.1,4.9-4.7,6.2-7.8s2.1-6,2.4-8.8
			C565.5,234.3,565.6,231.6,565.6,229.1z"/>
	</g>
</g>
<g id="Layer_3">
	<g enable-background="new    ">
		<path fill="#FFFFFF" d="M4.2,316.7v-32.8h3.2v32.8H4.2z"/>
		<path fill="#FFFFFF" d="M35.2,316.7H32v-13.5c0-2.9-0.4-5-1.2-6.2c-0.8-1.3-2.1-1.9-3.9-1.9c-0.9,0-1.9,0.2-2.8,0.5
			c-0.9,0.3-1.8,0.8-2.6,1.4c-0.8,0.6-1.5,1.3-2.1,2.2c-0.6,0.8-1.1,1.8-1.4,2.8v14.8h-3.1v-24.1h2.9v5.5c0.5-0.9,1.1-1.7,1.8-2.4
			c0.7-0.7,1.5-1.3,2.4-1.9c0.9-0.5,1.8-0.9,2.8-1.2c1-0.3,2-0.4,3.1-0.4c1.4,0,2.5,0.2,3.4,0.7c0.9,0.5,1.6,1.2,2.2,2.1
			c0.6,0.9,1,2,1.2,3.3c0.2,1.3,0.4,2.7,0.4,4.3V316.7z"/>
		<path fill="#FFFFFF" d="M40.1,304.6c0-1.7,0.3-3.3,0.9-4.8c0.6-1.5,1.4-2.8,2.5-4c1.1-1.1,2.3-2,3.8-2.7c1.5-0.6,3.1-1,4.9-1
			c2.3,0,4.3,0.5,6,1.5c1.7,1,3,2.4,3.8,4.2l-3.1,1c-0.7-1.2-1.6-2.2-2.8-2.9c-1.2-0.7-2.5-1-4-1c-1.2,0-2.4,0.2-3.4,0.7
			s-2,1.2-2.8,2c-0.8,0.8-1.4,1.9-1.9,3c-0.4,1.2-0.7,2.5-0.7,3.8c0,1.4,0.2,2.6,0.7,3.8c0.5,1.2,1.1,2.2,1.9,3.1
			c0.8,0.9,1.7,1.6,2.8,2.1s2.2,0.8,3.4,0.8c0.8,0,1.5-0.1,2.3-0.3c0.8-0.2,1.5-0.5,2.1-0.9c0.6-0.4,1.2-0.8,1.7-1.3
			c0.5-0.5,0.8-1,1-1.6l3.1,0.9c-0.3,0.9-0.8,1.7-1.5,2.4c-0.6,0.7-1.4,1.4-2.3,1.9c-0.9,0.5-1.9,1-2.9,1.2
			c-1.1,0.3-2.2,0.4-3.3,0.4c-1.8,0-3.4-0.3-4.9-1c-1.5-0.7-2.8-1.6-3.8-2.7c-1.1-1.2-1.9-2.5-2.5-4
			C40.4,307.9,40.1,306.3,40.1,304.6z"/>
		<path fill="#FFFFFF" d="M77.3,317.2c-1.8,0-3.4-0.3-4.8-1c-1.5-0.7-2.7-1.6-3.8-2.7c-1.1-1.1-1.9-2.5-2.5-4
			c-0.6-1.5-0.9-3.1-0.9-4.8c0-1.7,0.3-3.3,0.9-4.8c0.6-1.5,1.4-2.8,2.5-4s2.3-2.1,3.8-2.7c1.5-0.7,3.1-1,4.8-1c1.7,0,3.3,0.3,4.8,1
			c1.5,0.7,2.7,1.6,3.8,2.7s1.9,2.5,2.5,4c0.6,1.5,0.9,3.1,0.9,4.8c0,1.7-0.3,3.3-0.9,4.8c-0.6,1.5-1.4,2.8-2.5,4
			c-1.1,1.1-2.3,2-3.8,2.7C80.6,316.8,79,317.2,77.3,317.2z M68.5,304.8c0,1.4,0.2,2.6,0.7,3.8c0.4,1.2,1.1,2.2,1.9,3.1
			c0.8,0.9,1.7,1.6,2.8,2.1s2.2,0.7,3.4,0.7s2.3-0.3,3.4-0.8s2-1.2,2.8-2.1c0.8-0.9,1.4-1.9,1.9-3.1c0.5-1.2,0.7-2.4,0.7-3.8
			c0-1.3-0.2-2.6-0.7-3.8s-1.1-2.2-1.9-3.1c-0.8-0.9-1.7-1.6-2.8-2.1s-2.2-0.8-3.4-0.8c-1.2,0-2.3,0.3-3.4,0.8
			c-1.1,0.5-2,1.2-2.8,2.1c-0.8,0.9-1.4,1.9-1.9,3.1C68.7,302.1,68.5,303.4,68.5,304.8z"/>
		<path fill="#FFFFFF" d="M130.2,316.7h-3.1v-13.5c0-2.8-0.4-4.9-1.3-6.2c-0.9-1.3-2.2-2-4-2c-0.9,0-1.8,0.2-2.6,0.5
			c-0.8,0.3-1.6,0.8-2.3,1.4c-0.7,0.6-1.3,1.3-1.8,2.2c-0.5,0.8-0.9,1.8-1.2,2.8v14.7h-3.1v-13.5c0-2.9-0.4-5-1.3-6.2
			c-0.9-1.3-2.2-1.9-4-1.9c-1.8,0-3.4,0.6-4.9,1.9c-1.4,1.3-2.4,2.9-3.1,5v14.8h-3.1v-24.1h2.9v5.5c1-1.8,2.3-3.3,3.9-4.3
			s3.4-1.5,5.3-1.5c2,0,3.7,0.6,4.9,1.7c1.2,1.1,2,2.6,2.2,4.5c2.3-4.1,5.4-6.2,9.3-6.2c1.3,0,2.5,0.2,3.4,0.7
			c0.9,0.5,1.7,1.2,2.3,2.1c0.6,0.9,1,2,1.2,3.3c0.3,1.3,0.4,2.7,0.4,4.3V316.7z"/>
		<path fill="#FFFFFF" d="M147.3,317.2c-1.8,0-3.4-0.3-4.9-1c-1.5-0.7-2.8-1.6-3.8-2.7c-1.1-1.2-1.9-2.5-2.5-4
			c-0.6-1.5-0.9-3.1-0.9-4.9c0-1.7,0.3-3.3,0.9-4.8c0.6-1.5,1.4-2.8,2.5-3.9c1.1-1.1,2.4-2,3.8-2.7c1.5-0.7,3.1-1,4.8-1
			s3.4,0.3,4.8,1c1.5,0.7,2.7,1.6,3.8,2.7c1,1.1,1.9,2.5,2.5,3.9c0.6,1.5,0.9,3.1,0.9,4.7c0,0.2,0,0.5,0,0.7c0,0.2,0,0.4-0.1,0.5
			h-20.6c0.1,1.3,0.4,2.5,0.9,3.6c0.5,1.1,1.2,2,1.9,2.8c0.8,0.8,1.7,1.4,2.7,1.9c1,0.4,2.1,0.7,3.3,0.7c0.8,0,1.6-0.1,2.4-0.3
			c0.8-0.2,1.5-0.5,2.1-0.9s1.2-0.8,1.7-1.4c0.5-0.5,0.9-1.1,1.2-1.8l2.7,0.7c-0.4,0.9-0.9,1.7-1.6,2.4c-0.7,0.7-1.5,1.4-2.4,1.9
			c-0.9,0.5-1.9,1-3,1.2C149.5,317,148.4,317.2,147.3,317.2z M156.2,303.4c-0.1-1.3-0.4-2.5-0.9-3.5c-0.5-1.1-1.2-2-1.9-2.8
			c-0.8-0.8-1.7-1.4-2.8-1.8c-1-0.4-2.2-0.6-3.3-0.6c-1.2,0-2.3,0.2-3.3,0.6c-1,0.4-2,1-2.8,1.8c-0.8,0.8-1.4,1.7-1.9,2.8
			c-0.5,1.1-0.8,2.3-0.9,3.5H156.2z"/>
		<path fill="#FFFFFF" d="M198.6,286.7h-11.7v30h-3.2v-30H172v-2.9h26.6V286.7z"/>
		<path fill="#FFFFFF" d="M204.7,317.2c-1.2,0-2.4-0.2-3.4-0.6c-1-0.4-1.9-0.9-2.6-1.6c-0.7-0.7-1.3-1.5-1.7-2.4
			c-0.4-0.9-0.6-1.8-0.6-2.8c0-1.1,0.2-2.1,0.7-3c0.5-0.9,1.2-1.7,2.1-2.3c0.9-0.6,2-1.1,3.2-1.5s2.6-0.5,4.1-0.5
			c1.2,0,2.4,0.1,3.7,0.3c1.3,0.2,2.4,0.5,3.4,0.9v-2.2c0-2.1-0.6-3.8-1.8-5.1s-2.9-1.9-4.9-1.9c-1.3,0-2.6,0.2-3.9,0.7
			c-1.3,0.5-2.6,1.2-3.9,2.1l-1.1-2.1c1.6-1,3.1-1.8,4.6-2.4c1.5-0.5,3-0.8,4.6-0.8c2.9,0,5.3,0.8,7,2.5c1.7,1.7,2.6,4,2.6,7v10.9
			c0,0.9,0.4,1.3,1.1,1.3v2.8c-0.2,0-0.5,0.1-0.7,0.1c-0.2,0-0.4,0-0.6,0c-0.6,0-1.2-0.2-1.7-0.6c-0.5-0.4-0.8-0.9-0.9-1.7l-0.1-1.9
			c-1,1.4-2.4,2.5-4.1,3.3C208.2,316.8,206.4,317.2,204.7,317.2z M205.5,314.8c1.4,0,2.8-0.3,4.1-0.9c1.4-0.6,2.5-1.4,3.3-2.5
			c0.2-0.3,0.4-0.6,0.6-0.9c0.2-0.3,0.2-0.6,0.2-0.9v-3.9c-1-0.4-2.1-0.7-3.3-0.9c-1.1-0.2-2.3-0.3-3.3-0.3c-2.3,0-4.1,0.5-5.5,1.4
			c-1.4,0.9-2.1,2.2-2.1,3.8c0,0.6,0.1,1.3,0.4,1.9c0.2,0.6,0.6,1.2,1.1,1.7c0.5,0.5,1.1,0.9,1.9,1.2
			C203.6,314.6,204.5,314.8,205.5,314.8z"/>
		<path fill="#FFFFFF" d="M224.3,292.6l7.2,9.4l0.4,0.7l0.4-0.7l7.2-9.4h3.4l-9.2,12.1l9.2,12h-3.4l-7.2-9.4l-0.4-0.6l-0.4,0.6
			l-7.2,9.4h-3.4l9.2-12l-9.2-12.1H224.3z"/>
		<path fill="#FFFFFF" d="M278.7,290c-0.9-1-2.2-1.9-3.7-2.5c-1.6-0.6-3.3-1-5.2-1c-2.9,0-5.1,0.5-6.4,1.6c-1.3,1.1-2,2.6-2,4.5
			c0,1,0.2,1.8,0.5,2.4c0.4,0.6,0.9,1.2,1.7,1.6c0.8,0.5,1.7,0.9,2.9,1.2c1.2,0.3,2.5,0.7,4.1,1c1.8,0.4,3.3,0.8,4.7,1.2
			c1.4,0.4,2.6,1,3.6,1.7c1,0.7,1.7,1.5,2.3,2.5c0.5,1,0.8,2.2,0.8,3.7c0,1.5-0.3,2.8-0.9,3.9c-0.6,1.1-1.4,2-2.5,2.8
			c-1,0.7-2.3,1.3-3.7,1.6c-1.4,0.4-3,0.5-4.7,0.5c-5.2,0-9.5-1.6-13.2-4.8l1.6-2.6c1.2,1.3,2.8,2.3,4.9,3.2c2,0.9,4.3,1.3,6.8,1.3
			c2.6,0,4.7-0.5,6.2-1.4c1.5-0.9,2.2-2.4,2.2-4.3c0-1-0.2-1.9-0.6-2.6c-0.4-0.7-1-1.3-1.9-1.8s-1.9-0.9-3.1-1.3
			c-1.2-0.4-2.7-0.7-4.3-1.1c-1.7-0.4-3.2-0.8-4.5-1.2c-1.3-0.4-2.4-1-3.3-1.6s-1.5-1.4-2-2.3c-0.4-0.9-0.7-2-0.7-3.4
			c0-1.5,0.3-2.9,0.9-4c0.6-1.2,1.4-2.2,2.4-3c1-0.8,2.3-1.4,3.7-1.8s3-0.6,4.7-0.6c2.2,0,4.1,0.3,5.8,1s3.3,1.6,4.6,2.8L278.7,290z
			"/>
		<path fill="#FFFFFF" d="M297.5,317.2c-1.8,0-3.4-0.3-4.9-1c-1.5-0.7-2.8-1.6-3.8-2.7c-1.1-1.2-1.9-2.5-2.5-4
			c-0.6-1.5-0.9-3.1-0.9-4.9c0-1.7,0.3-3.3,0.9-4.8c0.6-1.5,1.4-2.8,2.5-3.9c1.1-1.1,2.4-2,3.8-2.7c1.5-0.7,3.1-1,4.8-1
			s3.4,0.3,4.8,1c1.5,0.7,2.7,1.6,3.8,2.7c1,1.1,1.9,2.5,2.5,3.9c0.6,1.5,0.9,3.1,0.9,4.7c0,0.2,0,0.5,0,0.7c0,0.2,0,0.4-0.1,0.5
			h-20.6c0.1,1.3,0.4,2.5,0.9,3.6c0.5,1.1,1.2,2,1.9,2.8c0.8,0.8,1.7,1.4,2.7,1.9c1,0.4,2.1,0.7,3.3,0.7c0.8,0,1.6-0.1,2.4-0.3
			c0.8-0.2,1.5-0.5,2.1-0.9c0.6-0.4,1.2-0.8,1.7-1.4c0.5-0.5,0.9-1.1,1.2-1.8l2.7,0.7c-0.4,0.9-0.9,1.7-1.6,2.4
			c-0.7,0.7-1.5,1.4-2.4,1.9c-0.9,0.5-1.9,1-3,1.2C299.7,317,298.6,317.2,297.5,317.2z M306.4,303.4c-0.1-1.3-0.4-2.5-0.9-3.5
			c-0.5-1.1-1.2-2-1.9-2.8c-0.8-0.8-1.7-1.4-2.8-1.8c-1-0.4-2.2-0.6-3.3-0.6c-1.2,0-2.3,0.2-3.3,0.6c-1,0.4-2,1-2.8,1.8
			c-0.8,0.8-1.4,1.7-1.9,2.8c-0.5,1.1-0.8,2.3-0.9,3.5H306.4z"/>
		<path fill="#FFFFFF" d="M326.1,295.4c-2.1,0.1-4,0.6-5.6,1.8c-1.6,1.1-2.7,2.6-3.3,4.6v15h-3.1v-24.1h3v5.8
			c0.8-1.7,1.9-3.1,3.3-4.2c1.4-1.1,2.8-1.7,4.4-1.7c0.3,0,0.5,0,0.8,0c0.2,0,0.4,0,0.6,0V295.4z"/>
		<path fill="#FFFFFF" d="M337.5,316.7l-9.8-24.1h3.3l8.3,21.2l8.3-21.2h3.1l-9.8,24.1H337.5z"/>
		<path fill="#FFFFFF" d="M354.8,287.6v-4.6h3.1v4.6H354.8z M354.8,316.7v-24.1h3.1v24.1H354.8z"/>
		<path fill="#FFFFFF" d="M363.2,304.6c0-1.7,0.3-3.3,0.9-4.8c0.6-1.5,1.4-2.8,2.5-4c1.1-1.1,2.3-2,3.8-2.7c1.5-0.6,3.1-1,4.9-1
			c2.3,0,4.3,0.5,6,1.5c1.7,1,3,2.4,3.8,4.2l-3.1,1c-0.7-1.2-1.6-2.2-2.8-2.9c-1.2-0.7-2.5-1-4-1c-1.2,0-2.4,0.2-3.4,0.7
			c-1.1,0.5-2,1.2-2.8,2c-0.8,0.8-1.4,1.9-1.9,3c-0.4,1.2-0.7,2.5-0.7,3.8c0,1.4,0.2,2.6,0.7,3.8c0.5,1.2,1.1,2.2,1.9,3.1
			c0.8,0.9,1.7,1.6,2.8,2.1c1.1,0.5,2.2,0.8,3.4,0.8c0.8,0,1.5-0.1,2.3-0.3c0.8-0.2,1.5-0.5,2.1-0.9c0.6-0.4,1.2-0.8,1.7-1.3
			c0.5-0.5,0.8-1,1-1.6l3.1,0.9c-0.3,0.9-0.8,1.7-1.5,2.4s-1.4,1.4-2.3,1.9c-0.9,0.5-1.9,1-2.9,1.2c-1.1,0.3-2.2,0.4-3.3,0.4
			c-1.8,0-3.4-0.3-4.9-1c-1.5-0.7-2.8-1.6-3.8-2.7c-1.1-1.2-1.9-2.5-2.5-4C363.5,307.9,363.2,306.3,363.2,304.6z"/>
		<path fill="#FFFFFF" d="M400.7,317.2c-1.8,0-3.4-0.3-4.9-1c-1.5-0.7-2.8-1.6-3.8-2.7c-1.1-1.2-1.9-2.5-2.5-4
			c-0.6-1.5-0.9-3.1-0.9-4.9c0-1.7,0.3-3.3,0.9-4.8s1.4-2.8,2.5-3.9c1.1-1.1,2.4-2,3.8-2.7c1.5-0.7,3.1-1,4.8-1s3.4,0.3,4.8,1
			c1.5,0.7,2.7,1.6,3.8,2.7c1,1.1,1.9,2.5,2.5,3.9c0.6,1.5,0.9,3.1,0.9,4.7c0,0.2,0,0.5,0,0.7c0,0.2,0,0.4-0.1,0.5h-20.6
			c0.1,1.3,0.4,2.5,0.9,3.6c0.5,1.1,1.2,2,1.9,2.8c0.8,0.8,1.7,1.4,2.7,1.9c1,0.4,2.1,0.7,3.3,0.7c0.8,0,1.6-0.1,2.4-0.3
			s1.5-0.5,2.1-0.9c0.6-0.4,1.2-0.8,1.7-1.4c0.5-0.5,0.9-1.1,1.2-1.8l2.7,0.7c-0.4,0.9-0.9,1.7-1.6,2.4c-0.7,0.7-1.5,1.4-2.4,1.9
			c-0.9,0.5-1.9,1-3,1.2C403,317,401.9,317.2,400.7,317.2z M409.6,303.4c-0.1-1.3-0.4-2.5-0.9-3.5c-0.5-1.1-1.2-2-1.9-2.8
			c-0.8-0.8-1.7-1.4-2.8-1.8c-1-0.4-2.2-0.6-3.3-0.6c-1.2,0-2.3,0.2-3.3,0.6c-1,0.4-2,1-2.8,1.8c-0.8,0.8-1.4,1.7-1.9,2.8
			c-0.5,1.1-0.8,2.3-0.9,3.5H409.6z"/>
		<path fill="#FFFFFF" d="M425.4,317.2c-1.9,0-3.7-0.3-5.5-0.9c-1.8-0.6-3.3-1.5-4.6-2.7l1.4-2.1c1.4,1.1,2.7,1.9,4.1,2.5
			c1.4,0.6,2.9,0.8,4.5,0.8c1.9,0,3.5-0.4,4.6-1.2c1.2-0.8,1.7-1.9,1.7-3.4c0-0.7-0.2-1.2-0.5-1.7c-0.3-0.4-0.8-0.8-1.4-1.2
			c-0.6-0.3-1.4-0.6-2.3-0.9c-0.9-0.3-2-0.5-3.2-0.8c-1.4-0.3-2.6-0.7-3.6-1c-1-0.3-1.9-0.7-2.5-1.2c-0.7-0.4-1.2-1-1.5-1.6
			c-0.3-0.6-0.5-1.4-0.5-2.4c0-1.2,0.2-2.3,0.7-3.2c0.5-0.9,1.1-1.7,1.9-2.3s1.8-1.1,2.9-1.4c1.1-0.3,2.3-0.5,3.5-0.5
			c1.9,0,3.5,0.3,5,0.9c1.5,0.6,2.7,1.4,3.7,2.4l-1.5,1.9c-0.9-0.9-2-1.6-3.3-2.1c-1.3-0.5-2.6-0.7-4-0.7c-0.8,0-1.6,0.1-2.3,0.3
			c-0.7,0.2-1.3,0.4-1.9,0.8c-0.5,0.4-1,0.8-1.3,1.4c-0.3,0.6-0.5,1.2-0.5,2c0,0.6,0.1,1.2,0.3,1.6c0.2,0.4,0.6,0.7,1.1,1
			c0.5,0.3,1.1,0.6,1.9,0.8c0.8,0.2,1.7,0.5,2.8,0.7c1.5,0.4,2.9,0.7,4.1,1.1c1.2,0.4,2.2,0.8,2.9,1.3c0.8,0.5,1.4,1.1,1.8,1.8
			c0.4,0.7,0.6,1.6,0.6,2.6c0,2.2-0.8,4-2.5,5.3C430.6,316.5,428.3,317.2,425.4,317.2z"/>
	</g>
</g>
</svg>
