<?xml version="1.0" encoding="utf-8"?>
<!-- Generator: Adobe Illustrator 18.0.0, SVG Export Plug-In . SVG Version: 6.00 Build 0)  -->
<!DOCTYPE svg PUBLIC "-//W3C//DTD SVG 1.1//EN" "http://www.w3.org/Graphics/SVG/1.1/DTD/svg11.dtd">
<svg version="1.1" id="Layer_6" xmlns="http://www.w3.org/2000/svg" xmlns:xlink="http://www.w3.org/1999/xlink" x="0px" y="0px"
	 viewBox="0 0 322.7 322.7" enable-background="new 0 0 322.7 322.7" xml:space="preserve">
<path d="M37.8,50.3L17.4,29.9h0v74.7h74.7v0L72,84.5c87.6-81.9,209.7-37,234,76.8C308.2,1,130.4-41.7,37.8,50.3z"/>
<path d="M285.6,272.4l20.4,20.4h0v-74.7h-74.7v0l20.1,20.1c-87.6,81.9-209.7,37-234-76.8C15.2,321.7,193,364.4,285.6,272.4z"/>
<g>
	<path d="M150.8,250.6v-19.7c-13.9-0.6-27.4-4.4-35.2-8.9l6.2-24.3c8.7,4.8,20.9,9.1,34.4,9.1c11.8,0,19.9-4.6,19.9-12.9
		c0-7.9-6.6-12.9-22-18c-22.2-7.5-37.3-17.8-37.3-37.9c0-18.2,12.9-32.5,35-36.9V81.4h20.3v18.2c13.9,0.6,23.2,3.5,30.1,6.8l-6,23.4
		c-5.4-2.3-14.9-7-29.8-7c-13.5,0-17.8,5.8-17.8,11.6c0,6.8,7.3,11.2,24.9,17.8c24.7,8.7,34.6,20.1,34.6,38.8
		c0,18.4-13.1,34.2-36.9,38.3v21.1H150.8z"/>
</g>
</svg>
