<?xml version="1.0" encoding="utf-8"?>
<!-- Generator: Adobe Illustrator 18.0.0, SVG Export Plug-In . SVG Version: 6.00 Build 0)  -->
<!DOCTYPE svg PUBLIC "-//W3C//DTD SVG 1.1//EN" "http://www.w3.org/Graphics/SVG/1.1/DTD/svg11.dtd">
<svg version="1.1" id="Layer_1" xmlns="http://www.w3.org/2000/svg" xmlns:xlink="http://www.w3.org/1999/xlink" x="0px" y="0px"
	 viewBox="0 0 500 500" enable-background="new 0 0 500 500" xml:space="preserve">
<g id="Layer_4">
	<path d="M289.1,120.7c27.4,0,53.5,4.2,77.1,11.7c9-13.2,14.4-28.9,14.4-45.7c0-46.8-41-84.9-91.5-84.9s-91.5,38-91.5,84.9
		c0,16.9,5.4,32.4,14.4,45.7C235.8,124.9,261.7,120.7,289.1,120.7z"/>
	<path d="M450.4,431c-1.8-7,0.3-15.9,4.8-20.7c51.5-57.2,30.3-120.7,16.7-150.2c-3.8-10.9-3.3-16.4,1.7-31.1c6.2-18.3,5.3-16,5.7-17
		c0,0,12.7-33.9-12-53c-25.8-19.9-41.6,13.4-41.6,13.4c23.9-12.9,29.8,2.3,31.4,5.7c2,4.2,5.7,20.2-9,23.7c-8,2-14,0.3-18.4-3
		c-1.5-1.2-2.8-2.7-4.5-4c-64.9-59.5-169.2-66.9-244-23.7c-2.3,1.3-3.5,4.2-2.8,6.9c6.2,22.1-2.8,44.1-22.4,55.9
		c-1.3,0.8-2.8,1.2-5.2,2c0.8-1.7,1.2-2.2,1.5-2.7c23.7-27.3,6.4-67.9-20.2-79.1c-16.2-6.9-64-8.9-67.4-1.8
		c-3.3,7.2,2.2,11.7,5.9,16.6c13.4,18.2,26.9,36.3,41.1,55.4c-8.9,9.9-17.1,20.2-26.3,29.4c-13,12.9-28.4,21.1-47.7,21.1
		c-11.7,0-17.4,7.2-16.6,19.2c1,13.9,2.3,27.9,4.2,41.8c2.3,17.9,10.5,25.6,28.6,27.6c13.9,1.7,27.3,5.2,38.8,12.7
		c13,8.7,18.7,14,31.3,23.4c4,3,8,11,6.5,18.6c-2.5,11.7-4.5,23.1-7.2,34.8c-5.4,22.9,1.3,32.3,24.4,37.1c12.2,2.5,35.3,5,47.7,6
		c21.4,1.8,29.1-6,33.9-26.9c1.2-5,3-12.9,4.3-18.4c37.5,8.9,74.4,8.4,111.5-1c1.2,5.5,4.5,17.6,5.4,22.1
		c5.9,28.9,21.7,27.8,45.3,23.9c9.4-1.5,24.7-3.5,34.1-4.3c26.9-2.5,32.6-11.9,26.9-36.3C452.8,438.2,455.1,448.2,450.4,431z
		 M116.9,315.4c-11.4,0.2-21.7-10.2-21.6-21.7c0.2-11.4,9.9-20.7,21.2-20.9c11.7-0.2,21.1,8.9,21.2,20.6
		C138,305.4,128.6,315.4,116.9,315.4z M377.3,200.2c-3,5.8-10.4,8.1-16.7,5.6c-42.3-17.2-90-18.7-134.2-3.5
		c-6.6,2.2-13.9-0.5-16.5-6.5c-2.6-6.1,1.4-13.6,8.9-16.2c49.7-17,103.3-15.3,151,4.1C377,186.6,380.3,194.3,377.3,200.2z"/>
</g>
</svg>
