<?xml version="1.0" encoding="utf-8"?>
<!-- Generator: Adobe Illustrator 18.0.0, SVG Export Plug-In . SVG Version: 6.00 Build 0)  -->
<!DOCTYPE svg PUBLIC "-//W3C//DTD SVG 1.1//EN" "http://www.w3.org/Graphics/SVG/1.1/DTD/svg11.dtd">
<svg version="1.1" id="Layer_1" xmlns="http://www.w3.org/2000/svg" xmlns:xlink="http://www.w3.org/1999/xlink" x="0px" y="0px"
	 viewBox="0 0 500 500" enable-background="new 0 0 500 500" xml:space="preserve">
<g id="Layer_1_copy">
	<g>
		<path d="M438.2,272.4v-23.1c21.6-12.6,36.5-38.7,36.5-68.9c0-42.4-29.3-76.8-65.5-76.8c-36.1,0-65.5,34.5-65.5,76.8
			c0,30.2,14.9,56.3,36.5,68.9v23.1c-20.9,0-54.8,17.1-54.8,38V350h167.4v-39.5C493,289.6,459.1,272.4,438.2,272.4z"/>
	</g>
</g>
<g id="Layer_1_copy_2">
	<g>
		<path d="M119.6,272.4v-23.1c21.6-12.6,36.5-38.7,36.5-68.9c0-42.4-29.3-76.8-65.5-76.8S25.2,138,25.2,180.3
			c0,30.2,14.9,56.3,36.5,68.9v23.1c-20.9,0-54.8,17.1-54.8,38V350h167.4v-39.5C174.3,289.6,140.6,272.4,119.6,272.4z"/>
	</g>
	<g>
		<polygon points="259.9,416.6 250.1,396.5 240.1,416.6 217.8,419.7 233.9,435.5 230.1,457.6 250.1,447.2 269.9,457.6 266.1,435.5 
			282.2,419.7 		"/>
		<polygon points="493,419.7 470.9,416.6 460.9,396.5 450.9,416.6 428.8,419.7 444.8,435.5 441.1,457.6 460.9,447.2 480.7,457.6 
			476.9,435.5 		"/>
		<polygon points="365.3,416.6 355.5,396.5 345.5,416.6 323.4,419.7 339.3,435.5 335.5,457.6 355.5,447.2 375.3,457.6 371.5,435.5 
			387.6,419.7 		"/>
		<polygon points="154.5,416.6 144.7,396.5 134.7,416.6 112.4,419.7 128.5,435.5 124.7,457.6 144.7,447.2 164.5,457.6 160.7,435.5 
			176.8,419.7 		"/>
		<polygon points="49.1,416.6 39.1,396.5 29.3,416.6 7,419.7 23.1,435.5 19.3,457.6 39.1,447.2 59.1,457.6 55.2,435.5 71.4,419.7 		
			"/>
	</g>
</g>
<g id="Layer_1_1_">
	<g>
		<path fill="#2A94D2" d="M146.3,356.8v-52.6c0-13.4,9.2-26.5,25.8-36.9c11.6-7.2,25.4-12.2,37.6-13.5v-16.5
			c-26.1-17-42.2-48.5-42.2-83.5c0-52.8,37.1-95.7,82.6-95.7s82.6,42.9,82.6,95.7c0,35-16.1,66.7-42.2,83.5v16.4
			c27.3,3.1,63.4,23.8,63.4,50.5v52.8H146.3z"/>
		<path fill="#FFFFFF" d="M249.9,64.8c41.8,0,75.7,39.8,75.7,88.9c0,35-17.2,65.2-42.2,79.7V260c24.2,0,63.4,19.8,63.4,44V350H153.1
			v-45.8c0-24.2,39.2-44,63.4-44v-26.7c-25-14.5-42.2-44.7-42.2-79.7C174.3,104.6,208.1,64.8,249.9,64.8 M249.9,51.1
			c-24.3,0-47,10.9-64,30.9c-16.4,19.3-25.4,44.7-25.4,71.8c0,36,16,68.6,42.2,87.2v7c-11.5,2.2-23.8,7-34.3,13.5
			c-18.7,11.6-29.1,26.8-29.1,42.7V350v13.7H153h193.6h13.7V350v-45.8c0-15.9-10.3-31-29.1-42.7c-10.5-6.6-22.8-11.3-34.3-13.5v-7
			c26.3-18.6,42.2-51.3,42.2-87.2c0-26.9-9-52.5-25.4-71.8C297,62.1,274.3,51.1,249.9,51.1L249.9,51.1z"/>
	</g>
</g>
</svg>
