<?xml version="1.0" encoding="utf-8"?>
<!-- Generator: Adobe Illustrator 18.0.0, SVG Export Plug-In . SVG Version: 6.00 Build 0)  -->
<!DOCTYPE svg PUBLIC "-//W3C//DTD SVG 1.1//EN" "http://www.w3.org/Graphics/SVG/1.1/DTD/svg11.dtd">
<svg version="1.1" id="Layer_2" xmlns="http://www.w3.org/2000/svg" xmlns:xlink="http://www.w3.org/1999/xlink" x="0px" y="0px"
	 viewBox="0 0 400 400" enable-background="new 0 0 400 400" xml:space="preserve">
<path d="M64.1,325.8H39.3c-6.6,0-12-5.4-12-12V188.4c0-6.6,5.4-12,12-12h24.8c6.6,0,12,5.4,12,12v125.4
	C76.1,320.4,70.7,325.8,64.1,325.8z"/>
<path d="M162.4,325.8h-24.8c-6.6,0-12-5.4-12-12V188.4c0-6.6,5.4-12,12-12h24.8c6.6,0,12,5.4,12,12v125.4
	C174.4,320.4,169,325.8,162.4,325.8z"/>
<path d="M260.8,325.8H236c-6.6,0-12-5.4-12-12V188.4c0-6.6,5.4-12,12-12h24.8c6.6,0,12,5.4,12,12v125.4
	C272.8,320.4,267.4,325.8,260.8,325.8z"/>
<path d="M358.9,326.9h-24.8c-6.6,0-12-5.4-12-12V189.5c0-6.6,5.4-12,12-12h24.8c6.6,0,12,5.4,12,12v125.4
	C370.9,321.5,365.5,326.9,358.9,326.9z"/>
<path d="M388,400H12c-6.6,0-12-5.4-12-12v-26.3c0-6.6,5.4-12,12-12h376c6.6,0,12,5.4,12,12V388C400,394.6,394.6,400,388,400z"/>
<path d="M386.9,124.3C339.1,91.5,212,4.3,212,4.3s-4.4-3.7-10.9-4.2v0c-0.1,0-0.3,0-0.4,0c-0.2,0-0.3,0-0.5,0c-0.2,0-0.3,0-0.5,0
	c-0.1,0-0.3,0-0.4,0v0c-6.5,0.5-10.9,4.2-10.9,4.2S61.4,91.5,13.6,124.3c-8.6,5.9-13.1,8.9-13.1,16.6c0,8.9,7.3,13.9,16.1,13.9
	h182.7h1.8h182.7c8.9,0,16.1-5,16.1-13.9C400,133.2,395.5,130.2,386.9,124.3z"/>
</svg>
