<?xml version="1.0" encoding="utf-8"?>
<!-- Generator: Adobe Illustrator 18.0.0, SVG Export Plug-In . SVG Version: 6.00 Build 0)  -->
<!DOCTYPE svg PUBLIC "-//W3C//DTD SVG 1.1//EN" "http://www.w3.org/Graphics/SVG/1.1/DTD/svg11.dtd">
<svg version="1.1" xmlns="http://www.w3.org/2000/svg" xmlns:xlink="http://www.w3.org/1999/xlink" x="0px" y="0px"
	 viewBox="0 0 500 500" enable-background="new 0 0 500 500" xml:space="preserve">
<g id="Layer_1">
	<g>
		<path d="M1,209c34.1,1.3,126.8,4,138,4c2-65.5,0.7-132.1,2.7-198.9c35.7,0,71.2,0,107.8,0c0,10.9,0,21.8,0,32.6
			c0.1,15.9,0.3,31.9,0.2,47.8c0,3.4,1,5.5,4.1,6.8c4.9,1.9,33.5,14.2,41.8,15c6.8,0.6,6.8,0.8,10.8,5.8c4.6-1.4,9.4-2.9,14.4-4.5
			c2.3,3.5,4.6,6.8,6.9,10.3c0.7-0.2,11.6-3.8,15.5,1.3c1.6,2.1,8.7-1.6,10.8-2.9c0.9,2.6,8,1.5,10.7-1.6c3.2,2.2,6.1,3.9,10.2,2
			c1.6-0.7,14.3,6.3,17.9,3.3c1.6-1.3,6.8-4.4,7.5-4.5c6-0.7,22.6-1.7,23.4-2.7c2.6-3.3,4.8-2.6,7.9-0.9
			c6.7,3.7,30.7,14.7,36.5,13.3c1.2-0.3,2.5-0.2,4.1-0.3c0.8,11.4,3.4,55.5,4.4,66.4c0.2,1.9,1.6,4.2,3.1,5.5
			c4,3.4,7.2,6.8,6.3,12.7c-0.2,1.5,0.8,3.4,1.7,4.9c2.6,4.3,5.1,8.7,8.3,12.6c4.3,5.2,5.4,10.3,1.7,16.2
			c-5.7,9.3-4.8,19.3-2.4,29.2c1.1,4.4-0.1,7.5-2.9,10.5c-3.1,3.3-5.9,6.8-2.1,10.4c-10.7,6.5-39.3,15.3-36.7,21
			c-1.1,0.7-2.9,2-4.8,3.2c-2.7,1.6-3.6,4-5,6.8c-2.2,4.7-6.4,9.6-10.9,11.7c-8,3.6-14.1,9.5-21.2,14c-1.2,0.7-19.4,4.6-17.8,8.8
			c-3.5,2.6-23.4,17.3-21.8,16.4c-1.3,2.7-2.6,4.7-3.4,6.9c-1.1,3-4,11.1-5.2,13.5c-2.4,4.7-6.3,9.6-6.3,14.4c0,5.9-7,11.3-2.1,16
			c0,4-0.7,6.9,0.1,9.4c2.4,7.6,5.3,15,8,22.5c0.8,2.3,1.3,4.4,4.6,4.9c1.5,0.2,2.6,2.7,3.9,4.1c-3,2.5-9.4,8.1-9.6,7.8
			c-7.2-8.2-33.6-10.5-36.8-11.6c-10.1-3.7-32.6-12.1-33-13.1c-1-2.4-1.8-4.9-2.3-7.4c-1.2-5.6-12.8-21.7-13.1-26.3
			c-0.2-2.9-1.1-5.9-0.8-8.7c0.5-6.8-14.5-17.1-16.7-19.9c-4.8-5.9-9.2-12.1-13.7-18.2c-1-1.3-1.8-2.7-2.5-4.1
			c-1.7-3.9-3.6-7.7-4.9-11.7c-5-16.1-14-29.5-27.5-39.7c-2.2-1.7-14.4-12.2-20.8-12.5c-8.2-0.4-26.4-2.8-26.6-2.3
			c-2.2,4.2-6.4,3.5-9.9,3.8c-2.8,0.3-4,1.4-4.6,3.9c-0.6,2.9-1.8,5.6-2.2,8.5c-1.3,8.9-6.6,15.3-12.8,21.2c-3.9,3.6-8.3,1-11.1-0.8
			c-13.6-8.5-26.9-17.7-40.1-26.9c-1.4-1-2.2-3.1-2.9-4.9c-5-12.4-9.8-24.8-14.8-37.1c-0.6-1.6-1.5-3.6-2.9-4.3
			c-17.6-9-28.6-25.3-42.1-38.8C15.9,230,3.5,214,1,210C1,209.6,1,209.3,1,209z"/>
	</g>
</g>
<g id="Layer_2">
</g>
</svg>
