<?xml version="1.0" encoding="utf-8"?>
<!-- Generator: Adobe Illustrator 18.0.0, SVG Export Plug-In . SVG Version: 6.00 Build 0)  -->
<!DOCTYPE svg PUBLIC "-//W3C//DTD SVG 1.1//EN" "http://www.w3.org/Graphics/SVG/1.1/DTD/svg11.dtd">
<svg version="1.1" id="Layer_2" xmlns="http://www.w3.org/2000/svg" xmlns:xlink="http://www.w3.org/1999/xlink" x="0px" y="0px"
	 viewBox="0 0 413 413" enable-background="new 0 0 413 413" xml:space="preserve">
<path d="M375.3,182c0,0,2.3,16.3-4.7,25.3s1,13.3,1,13.3s26,4.7,24.3,27.7S380,272,380,272s-13,8.3-2,14.7
	c11,6.3,16.3,13.7,16.3,24.7s-3.3,16.7-19,26.3c0,0-13.3,5.3-5,17c8.3,11.7,8,23.7-5.3,33c-13.3,9.3-32,17.8-60.3,22
	c-28.3,4.2-103.3,3.7-116.7,1.3s-59-4.3-90.3-19.3s-42.3-17-48.3-17S23,373.3,23,373.3v-148c0,0,24.7,1.7,34.7-16.3s25-40.3,29-43.7
	c4-3.3,21.3-21.3,26.7-27.7c5.3-6.3,32.7-40,37-47c4.3-7,19.3-28,23-40.6c0,0,7.7-16.4,9.7-28c0,0,3-24,23-21.2
	c0,0,45.3,8.5,29.7,63.5c0,0-9,30.7-24.7,60c0,0-9.3,30.2,2.3,39.3c12.3,9.7,14,6.3,24,6.7c10,0.3,57.3-6.3,67-8.3
	C314,160,372.3,150.3,375.3,182z"/>
</svg>
