<?xml version="1.0" encoding="utf-8"?>
<!-- Generator: Adobe Illustrator 18.0.0, SVG Export Plug-In . SVG Version: 6.00 Build 0)  -->
<!DOCTYPE svg PUBLIC "-//W3C//DTD SVG 1.1//EN" "http://www.w3.org/Graphics/SVG/1.1/DTD/svg11.dtd">
<svg version="1.1" xmlns="http://www.w3.org/2000/svg" xmlns:xlink="http://www.w3.org/1999/xlink" x="0px" y="0px"
	 viewBox="0 0 500 500" enable-background="new 0 0 500 500" xml:space="preserve">
<g id="Layer_1">
	<path d="M238.2,0H50C22.4,0,0,22.4,0,50v201.1c0,27.6,22.4,50,50,50h188.2c27.6,0,50-22.4,50-50V50C288.2,22.4,265.8,0,238.2,0z
		 M261,243.6c0,16.1-13,29.1-29.1,29.1H56.2c-16.1,0-29.1-13-29.1-29.1V57.5c0-16.1,13-29.1,29.1-29.1H221c22.1,0,40,17.9,40,40
		V243.6z"/>
	<path d="M230.1,211.6c-31.1,0.2-51.2-7.6-65.1-16.4c21.6-22.3,33.4-47.1,37.7-71.7h34.4V83.7h-65.6v-21h-47.7v21H58v39.8h114.3
		c0,0-4.6,27.2-30.2,53.7c-12.8-10.7-23.5-32.8-23.5-32.8l-27.3,13c11.6,23.9,26.5,38.7,26.6,38.8c-20.7,11.9-42.7,15.8-59.9,15.6
		v30c0,0,46,3,83.3-26c35,26.1,76.3,24.3,76.3,24.3S284.2,211.2,230.1,211.6z"/>
</g>
<g id="Layer_2_1_">
	<g>
		<polygon points="340.9,357.3 373.4,357.3 357.5,305.8 		"/>
		<path d="M451.5,198.9H263.4c-27.6,0-50,22.4-50,50V450c0,27.6,22.4,50,50,50h188.2c27.6,0,50-22.4,50-50V248.9
			C501.5,221.3,479.2,198.9,451.5,198.9z M389.6,410.3l-10.7-31h-43.1l-10.5,31h-33.9l53.2-138.5h25.9l53,138.5H389.6z"/>
	</g>
</g>
</svg>
